<svg width="53" height="39" viewBox="0 0 53 39" fill="none" xmlns="http://www.w3.org/2000/svg">
<path d="M10.6468 35.6145C10.5131 35.7493 10.3685 35.7897 10.2129 35.7355C10.0573 35.6813 9.90054 35.5492 9.74264 35.3393C9.59308 35.1245 9.46054 34.8435 9.34505 34.4964C9.32762 34.372 9.30187 34.2525 9.26779 34.1379C9.23863 34.0317 9.20682 33.9494 9.17236 33.8912C9.14964 33.8148 9.10514 33.6447 9.03887 33.3807C8.96767 33.1085 8.88928 32.7956 8.80369 32.4421C8.72644 32.0837 8.64747 31.7318 8.56681 31.3866C8.48955 31.0282 8.42517 30.7295 8.37366 30.4906C8.32556 30.2384 8.30246 30.0949 8.30435 30.0601C8.33766 30.0405 8.34959 29.9942 8.34012 29.9212C8.33065 29.8482 8.30868 29.7826 8.27423 29.7244C8.23485 29.6578 8.20304 29.5756 8.1788 29.4777C8.16289 29.3748 8.16175 29.2969 8.17538 29.244C8.15077 29.2024 8.13202 29.1518 8.11915 29.092C8.10968 29.0191 8.0951 28.9659 8.07541 28.9326C8.05572 28.8994 8.04436 28.8612 8.04132 28.8181C8.04662 28.7701 8.03943 28.7294 8.01974 28.6961C8.01556 28.5752 7.98961 28.3604 7.94189 28.0519C7.89757 27.7302 7.84114 27.3595 7.77258 26.9398C7.70743 26.5069 7.63736 26.0657 7.56237 25.6162C7.48245 25.1583 7.40652 24.7261 7.33456 24.3197C7.26259 23.9133 7.2001 23.5798 7.14708 23.3193C7.09406 23.0588 7.0577 22.9119 7.03801 22.8786C6.99863 22.812 6.98576 22.7523 6.99938 22.6994C7.01301 22.6465 7.05314 22.6004 7.11977 22.5611C7.12999 22.5214 7.1493 22.4876 7.17769 22.4597C7.21442 22.4268 7.24944 22.4006 7.28275 22.3809C7.28275 22.3809 7.30926 22.3878 7.36226 22.4014C7.41527 22.4151 7.49478 22.4355 7.60079 22.4628C7.70188 22.4818 7.77874 22.5263 7.83137 22.5963C7.89233 22.6613 7.95235 22.7438 8.01142 22.8436C8.07541 22.9518 8.11953 23.0549 8.14376 23.1528C8.168 23.2507 8.1894 23.4008 8.20797 23.6031C8.22653 23.8053 8.25513 24.1195 8.29378 24.5456C8.30817 24.6269 8.32711 24.7728 8.3506 24.9834C8.37409 25.194 8.40155 25.4303 8.43299 25.6923C8.47276 25.9493 8.50591 26.2047 8.53242 26.4584C8.56235 26.6989 8.58754 26.9028 8.608 27.0703C8.63678 27.2329 8.65609 27.3225 8.66594 27.3391C8.68563 27.3724 8.69851 27.4322 8.70457 27.5184C8.71896 27.5996 8.73903 27.7 8.76479 27.8195C8.77085 27.9057 8.78411 28.0325 8.80457 28.2C8.8201 28.3592 8.83885 28.5333 8.86082 28.7223C8.8862 28.8981 8.91006 29.0524 8.93241 29.1851C8.94983 29.3095 8.96347 29.38 8.97331 29.3966C8.993 29.4299 9.00853 29.4656 9.01989 29.5038C9.03958 29.5371 9.04261 29.5802 9.02898 29.6331C8.99566 29.6528 8.98961 29.69 9.01082 29.7448C9.03543 29.7864 9.04773 29.8072 9.04773 29.8072C9.09696 29.8904 9.16077 30.1502 9.23917 30.5865C9.28916 30.8039 9.35619 31.0786 9.44026 31.4106C9.52434 31.7425 9.61239 32.1002 9.70441 32.4836C9.79985 32.8538 9.89452 33.2132 9.98844 33.5618C10.0824 33.9104 10.1666 34.2142 10.2412 34.4732C10.3291 34.7357 10.4001 34.9126 10.4542 35.0042C10.5724 35.2039 10.6445 35.3353 10.6706 35.3984C10.7017 35.4699 10.6937 35.5419 10.6468 35.6145ZM5.2628 33.4345C5.21282 33.4639 5.15035 33.5008 5.07539 33.5449C4.99551 33.5808 4.89991 33.6091 4.7886 33.6298C4.66366 33.7034 4.57299 33.74 4.51657 33.7396C4.45524 33.7308 4.39068 33.7071 4.32291 33.6685C4.15745 33.5977 4.0999 33.5194 4.15025 33.4336C4.19568 33.3395 4.36263 33.185 4.65112 32.9702C4.72797 32.8912 4.89474 32.7649 5.15143 32.5912C5.40812 32.4175 5.71724 32.2185 6.0788 31.9943C6.44377 31.7568 6.82369 31.5161 7.21857 31.2722C7.62177 31.0234 8.01078 30.7885 8.38559 30.5677C8.75548 30.3385 9.08202 30.1405 9.36521 29.9736C9.64348 29.7984 9.83675 29.6789 9.94503 29.6151C10.1616 29.4875 10.3123 29.41 10.3971 29.3824C10.4819 29.3549 10.5972 29.3599 10.7429 29.3974C10.9417 29.4486 11.0589 29.5423 11.0945 29.6784C11.1252 29.8062 11.0349 29.9099 10.8236 29.9895C10.7702 30.0322 10.6669 30.1043 10.5136 30.2059C10.3602 30.3074 10.2135 30.4107 10.0734 30.5157C10.0401 30.5353 9.91348 30.6156 9.69351 30.7564C9.46863 30.8889 9.1879 31.0599 8.85133 31.2695C8.51816 31.4658 8.16247 31.681 7.78425 31.9151C7.40111 32.1408 7.03293 32.3634 6.6797 32.5828C6.32154 32.7938 6.01583 32.9796 5.76254 33.14C5.51267 33.2873 5.34609 33.3854 5.2628 33.4345ZM7.89817 37.2341C7.76453 37.3689 7.61573 37.4117 7.45179 37.3624C7.29618 37.3083 7.14359 37.1738 6.99403 36.9589C6.84446 36.7441 6.71193 36.4631 6.59643 36.116C6.57901 35.9916 6.55326 35.8721 6.51917 35.7575C6.49001 35.6513 6.4582 35.569 6.42375 35.5108C6.40103 35.4344 6.35653 35.2643 6.29026 35.0003C6.21906 34.7281 6.14067 34.4152 6.05508 34.0617C5.97782 33.7033 5.89886 33.3514 5.81819 33.0062C5.74093 32.6478 5.67655 32.3491 5.62504 32.1102C5.57695 31.858 5.55384 31.7145 5.55573 31.6797C5.58905 31.6601 5.60097 31.6138 5.5915 31.5408C5.58203 31.4679 5.56007 31.4022 5.52561 31.344C5.48623 31.2774 5.45442 31.1952 5.43019 31.0973C5.41428 30.9944 5.41314 30.9165 5.42676 30.8636C5.40215 30.822 5.38341 30.7714 5.37053 30.7116C5.36106 30.6387 5.34648 30.5855 5.32679 30.5522C5.3071 30.519 5.29574 30.4808 5.29271 30.4377C5.29801 30.3897 5.29081 30.349 5.27112 30.3157C5.26695 30.1948 5.241 29.98 5.19328 29.6715C5.14896 29.3498 5.09252 28.9791 5.02397 28.5594C4.95882 28.1265 4.88875 27.6853 4.81376 27.2358C4.73384 26.7779 4.6579 26.3458 4.58594 25.9393C4.51398 25.5329 4.45149 25.1994 4.39846 24.9389C4.34544 24.6784 4.30909 24.5315 4.2894 24.4982C4.25002 24.4316 4.23714 24.3719 4.25077 24.319C4.26439 24.2661 4.30452 24.22 4.37116 24.1807C4.38138 24.141 4.40068 24.1072 4.42908 24.0793C4.4658 24.0464 4.50082 24.0202 4.53414 24.0005C4.53414 24.0005 4.56064 24.0074 4.61365 24.021C4.66665 24.0347 4.74616 24.0551 4.85218 24.0824C4.95327 24.1014 5.03013 24.1459 5.08276 24.2159C5.14372 24.2809 5.20373 24.3634 5.2628 24.4633C5.3268 24.5714 5.37091 24.6745 5.39515 24.7724C5.41939 24.8703 5.44079 25.0204 5.45935 25.2227C5.47792 25.4249 5.50652 25.7391 5.54517 26.1652C5.55956 26.2465 5.5785 26.3924 5.60198 26.603C5.62547 26.8136 5.65294 27.0499 5.68438 27.3119C5.72415 27.5689 5.75729 27.8243 5.78381 28.078C5.81373 28.3185 5.83893 28.5224 5.85938 28.6899C5.88817 28.8525 5.90748 28.9421 5.91732 28.9587C5.93701 28.992 5.94989 29.0518 5.95595 29.138C5.97035 29.2192 5.99042 29.3196 6.01617 29.4391C6.02224 29.5253 6.03549 29.6521 6.05595 29.8196C6.07148 29.9788 6.09024 30.1529 6.11221 30.3419C6.13758 30.5177 6.16145 30.672 6.18379 30.8047C6.20122 30.9291 6.21485 30.9996 6.2247 31.0162C6.24439 31.0495 6.25991 31.0852 6.27127 31.1234C6.29096 31.1567 6.29399 31.1998 6.28037 31.2527C6.24705 31.2724 6.24099 31.3096 6.2622 31.3644C6.28681 31.406 6.29912 31.4268 6.29912 31.4268C6.34834 31.51 6.41216 31.7698 6.49056 32.2061C6.54055 32.4235 6.60758 32.6982 6.69165 33.0302C6.77572 33.3622 6.86377 33.7198 6.9558 34.1032C7.05123 34.4734 7.14591 34.8328 7.23982 35.1814C7.33374 35.53 7.418 35.8338 7.4926 36.0929C7.58046 36.3553 7.65146 36.5323 7.7056 36.6238C7.82374 36.8235 7.89588 36.9549 7.92201 37.018C7.95306 37.0895 7.94511 37.1615 7.89817 37.2341ZM4.54817 30.4893C4.4982 30.5187 4.43573 30.5555 4.36077 30.5997C4.28088 30.6355 4.18529 30.6638 4.07398 30.6845C3.94904 30.7581 3.85836 30.7947 3.80195 30.7943C3.74061 30.7856 3.67606 30.7619 3.60829 30.7233C3.44283 30.6525 3.38528 30.5742 3.43562 30.4884C3.48105 30.3943 3.64801 30.2398 3.9365 30.0249C4.01335 29.946 4.18012 29.8197 4.43681 29.646C4.6935 29.4723 5.00262 29.2733 5.36418 29.049C5.72915 28.8115 6.10907 28.5708 6.50394 28.3269C6.90715 28.0781 7.29616 27.8433 7.67097 27.6224C8.04086 27.3933 8.3674 27.1953 8.65059 27.0284C8.92885 26.8532 9.12213 26.7337 9.23041 26.6699C9.44696 26.5423 9.59765 26.4647 9.68245 26.4372C9.76726 26.4097 9.88255 26.4147 10.0283 26.4522C10.2271 26.5034 10.3443 26.5971 10.3799 26.7332C10.4105 26.861 10.3203 26.9647 10.109 27.0443C10.0556 27.0869 9.95226 27.1591 9.79893 27.2606C9.6456 27.3622 9.49889 27.4655 9.35881 27.5705C9.3255 27.5901 9.19886 27.6703 8.97889 27.8112C8.754 27.9437 8.47327 28.1147 8.1367 28.3243C7.80354 28.5206 7.44785 28.7358 7.06963 28.9698C6.68649 29.1956 6.3183 29.4182 5.96507 29.6375C5.60692 29.8486 5.3012 30.0343 5.04792 30.1948C4.79805 30.342 4.63146 30.4402 4.54817 30.4893ZM15.7034 33.4933C15.5243 33.7222 15.2688 33.8504 14.9367 33.8777C14.618 33.9085 14.2906 33.8489 13.9548 33.6989C13.892 33.6686 13.8036 33.6141 13.6896 33.5354C13.5889 33.4601 13.4857 33.3806 13.3801 33.297C13.2827 33.2084 13.2053 33.125 13.1478 33.0467C13.0902 32.9684 13.069 32.9136 13.0841 32.8822C13.0944 32.8425 13.1311 32.8097 13.1943 32.7837C13.2575 32.7576 13.324 32.7465 13.3937 32.7504C13.4716 32.7493 13.5337 32.7688 13.5799 32.8089C13.6394 32.8524 13.7212 32.9052 13.8253 32.9673C13.9377 33.0245 14.0494 33.0709 14.1604 33.1065C14.2713 33.1421 14.3459 33.1543 14.3841 33.143C14.5867 33.1246 14.723 33.0892 14.793 33.0367C14.8631 32.9842 14.9149 32.92 14.9486 32.844C15.0262 32.6524 15.0591 32.4422 15.0474 32.2135C15.0356 31.9848 14.9798 31.653 14.8798 31.2182C14.7893 30.8564 14.6889 30.4779 14.5787 30.0828C14.4719 29.6744 14.3994 29.3524 14.3612 29.1169C14.3271 29.0023 14.307 28.902 14.3009 28.8158C14.2983 28.7163 14.3038 28.6402 14.3174 28.5872L14.3924 28.5431C14.278 28.7675 14.1944 28.9964 14.1414 29.2296C14.0884 29.4628 13.9807 29.6889 13.8183 29.9081C13.8028 29.9958 13.7 30.1068 13.5099 30.2413C13.3233 30.3625 13.1211 30.4479 12.9034 30.4977C12.7474 30.4998 12.6304 30.5014 12.5524 30.5025C12.4828 30.4987 12.414 30.4774 12.3463 30.4388C12.2868 30.3953 12.1952 30.3259 12.0714 30.2305C11.9392 30.14 11.8103 29.9411 11.6846 29.6337C11.5589 29.3262 11.4665 28.9992 11.4074 28.6525C11.3843 28.3855 11.3971 28.075 11.446 27.7208C11.4948 27.3666 11.5708 27.0301 11.6742 26.7111C11.7726 26.3838 11.8945 26.1437 12.0399 25.9907C12.0868 25.9181 12.1453 25.8556 12.2154 25.8031C12.2888 25.7374 12.4128 25.6812 12.5873 25.6344C12.7388 25.5676 12.8667 25.5371 12.9712 25.5429C13.0708 25.5403 13.2457 25.5606 13.496 25.6039C13.6683 25.6483 13.8197 25.7049 13.9503 25.7738C14.0893 25.8378 14.2141 25.9158 14.3246 26.0078C14.4568 26.0982 14.5465 26.2024 14.5938 26.3204C14.6446 26.4252 14.6603 26.5562 14.641 26.7134C14.63 26.8657 14.6149 27.0205 14.5956 27.1778C14.5763 27.335 14.6024 27.5216 14.674 27.7375C14.78 28.0117 14.8807 28.3338 14.9762 28.704C15.0667 29.0659 15.1574 29.3995 15.2483 29.7051L15.5062 30.5967C15.7163 31.4266 15.8266 32.0686 15.8368 32.5226C15.8603 32.98 15.8158 33.3036 15.7034 33.4933ZM12.8909 29.7645C13.0525 29.658 13.1911 29.5314 13.3065 29.3849C13.422 29.2383 13.5112 29.0567 13.574 28.8401C13.6319 28.6153 13.6677 28.3529 13.6813 28.0532C13.7047 27.77 13.6816 27.5031 13.612 27.2524C13.5374 26.9934 13.4302 26.7648 13.2905 26.5666C13.2034 26.4384 13.1309 26.3633 13.0729 26.3413C13.015 26.3194 12.9368 26.3486 12.8384 26.429C12.6949 26.5473 12.5717 26.7377 12.4687 27.0003C12.3608 27.2547 12.2876 27.5391 12.249 27.8536C12.2225 28.0936 12.2365 28.3546 12.2911 28.6367C12.3554 28.9354 12.4458 29.202 12.562 29.4364C12.6783 29.6709 12.7879 29.7803 12.8909 29.7645ZM18.1737 28.5704C18.0654 28.6342 17.9657 28.6649 17.8744 28.6626C17.7915 28.6553 17.6821 28.6412 17.5462 28.6203C17.2895 28.5472 17.0835 28.4553 16.9283 28.3448C16.7681 28.226 16.6587 28.0885 16.6 27.9323C16.5856 27.8511 16.557 27.7837 16.5142 27.7304C16.4748 27.6638 16.4551 27.6306 16.4551 27.6306C16.3889 27.6135 16.3616 27.5959 16.3734 27.5778C16.3802 27.5513 16.3821 27.5165 16.379 27.4734C16.429 27.444 16.4186 27.3884 16.3478 27.3067C16.2918 27.2499 16.2389 27.0847 16.1893 26.811C16.1397 26.5372 16.1183 26.2637 16.1251 25.9904C16.1258 25.8777 16.1368 25.7254 16.158 25.5334C16.1743 25.333 16.2013 25.132 16.2392 24.9301C16.2804 24.715 16.3264 24.5365 16.3771 24.3944C16.482 24.0969 16.5889 23.86 16.698 23.6835C16.807 23.5071 16.9408 23.3441 17.0995 23.1945C17.2581 23.0449 17.3707 22.9505 17.4373 22.9112C17.5123 22.8671 17.6516 22.8747 17.8553 22.9342C18.0961 22.9046 18.2926 22.9234 18.4448 22.9908C18.6054 23.0533 18.7646 23.1896 18.9225 23.3995C19.0951 23.6344 19.2441 23.9337 19.3695 24.2975C19.4982 24.648 19.5363 25.1586 19.4837 25.8291C19.4527 26.2514 19.394 26.5889 19.3077 26.8418C19.2165 27.0863 19.092 27.3504 18.9341 27.6342C18.8281 27.8538 18.7215 28.0344 18.6144 28.176C18.5023 28.3094 18.3554 28.4408 18.1737 28.5704ZM18.5904 26.5407C18.6574 26.1982 18.6902 25.8928 18.6886 25.6244C18.6954 25.3511 18.6619 25.0286 18.5881 24.6569C18.5672 24.5458 18.5216 24.4212 18.4512 24.2831C18.3758 24.1368 18.2953 24.0103 18.2098 23.9036C18.1276 23.7837 18.0566 23.7301 17.9968 23.743C17.8624 23.7436 17.7318 23.7981 17.6049 23.9065C17.4732 24.0066 17.3659 24.1764 17.283 24.416C17.1527 24.7845 17.0878 25.1875 17.0882 25.6248C17.0837 26.0539 17.1105 26.5263 17.1684 27.042C17.2207 27.4151 17.3343 27.6736 17.5092 27.8174C17.6875 27.9479 17.8786 27.9195 18.0822 27.7322C18.2893 27.5316 18.4587 27.1344 18.5904 26.5407ZM22.8582 25.4229C22.703 25.5593 22.5979 25.638 22.543 25.6592C22.4915 25.6671 22.3953 25.6564 22.2545 25.6272C22.0819 25.6391 21.9202 25.6222 21.7695 25.5763C21.6271 25.5256 21.5031 25.4584 21.3975 25.3747C21.2953 25.2779 21.2262 25.1896 21.1902 25.1098C21.0429 24.8038 20.9291 24.4501 20.8488 24.0486C20.7685 23.647 20.7206 23.2432 20.7051 22.8372C20.6895 22.4312 20.7135 22.0636 20.7771 21.7344C20.8441 21.3919 20.9495 21.1334 21.0934 20.9589C21.2206 20.7942 21.3641 20.676 21.5239 20.6043C21.6836 20.5326 21.8387 20.5478 21.989 20.65C22.2567 20.8177 22.3186 20.9888 22.1747 21.1633C22.1497 21.178 22.128 21.2077 22.1094 21.2523C22.0859 21.2886 22.084 21.3233 22.1037 21.3566C22.1469 21.3536 22.241 21.3038 22.386 21.2071C22.5261 21.1022 22.6612 20.9889 22.7915 20.8672C22.9251 20.7324 23.0046 20.6294 23.03 20.5584C23.0652 20.504 23.0953 20.4694 23.1203 20.4547C23.1452 20.44 23.2126 20.4115 23.3224 20.3692C23.4886 20.3274 23.589 20.3356 23.6234 20.3938C23.6431 20.4271 23.6753 20.453 23.72 20.4716C23.7597 20.4818 23.7963 20.4771 23.8296 20.4575C23.8928 20.4315 23.9066 20.4738 23.871 20.5846C23.8438 20.6904 23.7813 20.8506 23.6837 21.0653C23.5845 21.2584 23.5239 21.3838 23.502 21.4416C23.4834 21.4862 23.5137 21.5469 23.5928 21.6237C23.753 21.7426 23.8655 21.9232 23.9302 22.1655C23.995 22.4079 24.0164 22.6814 23.9944 22.9861C23.9725 23.2908 23.9099 23.6026 23.8065 23.9216C23.7066 24.2273 23.5752 24.5179 23.4124 24.7934C23.2531 25.0556 23.0683 25.2655 22.8582 25.4229ZM22.3209 24.9989C22.3542 24.9793 22.4027 24.9283 22.4663 24.846C22.525 24.7553 22.5719 24.6827 22.6071 24.6283C22.6207 24.5754 22.6402 24.5134 22.6656 24.4424C22.6944 24.3581 22.723 24.302 22.7513 24.274C22.7847 24.2544 22.8189 24.2174 22.8541 24.163C22.8844 24.1002 22.9183 23.9961 22.9558 23.8506C22.9883 23.6968 23.023 23.48 23.0597 23.2003C23.1179 22.9191 23.1486 22.6766 23.1516 22.4728C23.1497 22.2608 23.0886 22.1004 22.9681 21.9918C22.9401 21.9635 22.9028 21.9574 22.8563 21.9736C22.818 21.9849 22.7599 21.9911 22.6819 21.9922C22.5986 22.0413 22.5072 22.0671 22.4076 22.0696C22.3115 22.059 22.1954 22.0432 22.0595 22.0223L21.7119 21.8905L21.625 22.2278C21.5705 22.4395 21.5471 22.7226 21.5547 23.0772C21.5657 23.4186 21.6024 23.756 21.6649 24.0895C21.7225 24.4146 21.7897 24.6611 21.8666 24.829C21.9321 24.9588 22.0021 25.0297 22.0767 25.0418C22.1513 25.054 22.2327 25.0397 22.3209 24.9989ZM29.356 22.0654C29.3227 22.0851 29.2702 22.1104 29.1987 22.1413C29.1305 22.159 29.0584 22.151 28.9823 22.1173C28.7688 22.0412 28.6158 21.963 28.5234 21.8828C28.431 21.8025 28.3407 21.6594 28.2525 21.4533C28.1953 21.3187 28.1397 21.2056 28.0855 21.1141C28.0348 21.0093 27.9939 20.9212 27.9628 20.8497C27.9098 20.8361 27.8621 20.8978 27.8197 21.035C27.7807 21.159 27.7207 21.3234 27.6397 21.5282C27.5485 22.0196 27.4421 22.4189 27.3206 22.7262C27.2025 23.0202 27.0732 23.2478 26.9328 23.4091C26.7874 23.5621 26.6307 23.6769 26.4626 23.7535C26.3111 23.8203 26.1642 23.8283 26.0219 23.7776C25.8746 23.7185 25.7392 23.6131 25.6158 23.4614C25.5007 23.3048 25.3948 23.1259 25.2983 22.9247C25.1692 22.6305 25.0724 22.3341 25.008 22.0354C24.952 21.7318 24.9328 21.3672 24.9506 20.9415C24.9438 20.7211 24.9686 20.4877 25.025 20.2413C25.0848 19.9816 25.1694 19.7354 25.2788 19.5026C25.3916 19.2566 25.5182 19.0529 25.6587 18.8916C25.8059 18.7038 25.9771 18.5469 26.172 18.4208C26.3621 18.2864 26.551 18.1975 26.7388 18.1542C26.8683 18.1452 26.9622 18.1235 27.0205 18.0892C27.0871 18.0499 27.1125 17.9789 27.0966 17.876C27.0988 17.7849 27.0814 17.6605 27.0443 17.5029C27.0023 17.3369 26.9809 17.1868 26.9801 17.0526L26.775 16.0794C26.7337 15.8007 26.6934 15.5047 26.654 15.1913C26.6146 14.8779 26.564 14.4981 26.5023 14.052C26.4864 13.7023 26.5119 13.4796 26.5789 13.384C26.641 13.2801 26.7648 13.2521 26.9503 13.2998C27.1059 13.354 27.2131 13.4592 27.2718 13.6154C27.3256 13.7632 27.3786 14.0237 27.4308 14.3969C27.4267 14.5228 27.4284 14.6396 27.436 14.7473C27.4386 14.8468 27.4517 15.0018 27.4752 15.2123C27.5195 15.5341 27.5574 15.8259 27.5888 16.0879C27.6154 16.3416 27.6549 16.6269 27.7076 16.9437C27.753 17.0965 27.7983 17.2774 27.8433 17.4865C27.8967 17.6907 27.9486 17.8733 27.999 18.0344C28.0528 18.1822 28.0975 18.3242 28.133 18.4603C28.1721 18.5832 28.1749 18.6545 28.1416 18.6741C28.1192 18.7883 28.1355 18.9582 28.1905 19.1839C28.2404 19.4013 28.3037 19.6221 28.3802 19.8464C28.465 20.0657 28.5343 20.2493 28.5881 20.3971C28.6305 20.5068 28.6943 20.6431 28.7795 20.8061C28.8647 20.9691 28.9516 21.1255 29.0402 21.2753C29.1239 21.4167 29.1829 21.5166 29.2174 21.5748C29.3257 21.7579 29.3904 21.8768 29.4116 21.9317C29.4329 21.9865 29.4143 22.0311 29.356 22.0654ZM26.2297 22.8472C26.4046 22.7441 26.5435 22.5613 26.6465 22.2986C26.7578 22.0311 26.8592 21.7469 26.9508 21.446C27.0069 21.2559 27.0491 21.0235 27.0774 20.7487C27.1141 20.469 27.1425 20.1941 27.1626 19.9242C27.1909 19.6494 27.2049 19.4168 27.2046 19.2262C27.1992 19.0274 27.1867 18.9113 27.167 18.8781C27.1424 18.8364 27.0877 18.8294 27.0029 18.8569C26.9181 18.8845 26.8257 18.9277 26.7258 18.9866C26.6292 19.0322 26.5567 19.0806 26.5083 19.1316C26.3497 19.2812 26.2156 19.4723 26.1062 19.7051C26.0052 19.933 25.9243 20.2331 25.8638 20.6054C25.8047 20.9993 25.7881 21.3794 25.8139 21.7457C25.848 22.1071 25.905 22.3933 25.9849 22.6043C26.0648 22.8153 26.1464 22.8963 26.2297 22.8472ZM32.1993 20.0198C32.1376 20.0673 32.0196 20.0863 31.8455 20.0768C31.6796 20.0623 31.5147 20.0304 31.3508 19.9811C31.2383 19.9239 31.103 19.8185 30.9447 19.6649C30.7865 19.5113 30.6284 19.3296 30.4705 19.1196C30.3126 18.9097 30.1721 18.7007 30.049 18.4927C29.9343 18.2798 29.8198 18.0387 29.7054 17.7695C29.5945 17.487 29.4916 17.2278 29.397 16.9918C29.3106 16.7509 29.2537 16.5881 29.226 16.5034C29.2517 16.3761 29.2881 16.2761 29.335 16.2036C29.3903 16.1261 29.452 16.0785 29.5202 16.0608C29.5883 16.0431 29.6695 16.057 29.7638 16.1024C29.9149 16.0919 30.0232 16.1516 30.0887 16.2813C30.1625 16.4061 30.2112 16.5738 30.2346 16.7844C30.2593 16.826 30.2854 16.8891 30.313 16.9738C30.3357 17.0502 30.356 17.1224 30.3738 17.1905C30.3761 17.3462 30.4001 17.4723 30.446 17.5687C30.4952 17.6519 30.5643 17.7403 30.6533 17.8337C30.7422 17.9272 30.7805 18.0393 30.768 18.1701L30.7606 18.1576C30.7867 18.2207 30.8417 18.323 30.9253 18.4645C31.0173 18.601 31.1135 18.7351 31.2139 18.8667C31.3176 18.9852 31.4075 19.0612 31.4836 19.0949C31.5363 19.1649 31.6001 19.1778 31.675 19.1336C31.7534 19.0762 31.8231 18.9566 31.884 18.7748C31.9249 18.6161 31.9635 18.425 31.9998 18.2016C32.0445 17.9734 32.0742 17.7483 32.0889 17.5264C32.112 17.2996 32.1224 17.1083 32.1201 16.9525C32.1262 16.7919 32.111 16.6998 32.0747 16.6764C32.002 16.6294 31.9867 16.5655 32.0287 16.4847C32.0741 16.3906 32.1095 16.308 32.1349 16.2369C32.147 16.1625 32.1424 16.0978 32.1212 16.043C32.0951 15.9798 32.0815 15.9093 32.0803 15.8315C32.0973 15.7653 32.0962 15.6874 32.0769 15.5978C32.0174 15.5543 32.0046 15.4946 32.0383 15.4186C32.0754 15.3294 32.0875 15.255 32.0746 15.1952C32.042 15.1022 32.0367 15.0268 32.0587 14.969C32.089 14.9062 32.1382 14.866 32.2063 14.8483C32.2696 14.8223 32.3368 14.8219 32.4079 14.8473C32.4825 14.8595 32.5486 14.9047 32.6062 14.983C32.6652 15.0828 32.7139 15.2505 32.7521 15.4861C32.7987 15.7167 32.8319 15.9721 32.8516 16.2522C32.8713 16.5324 32.8703 16.7966 32.8488 17.045C32.8465 17.1361 32.8484 17.2247 32.8545 17.3109C32.8605 17.3971 32.8581 17.5164 32.8471 17.6687C32.8445 17.8161 32.8214 18.043 32.7779 18.3491C32.7506 18.4549 32.7258 18.5649 32.7035 18.6791C32.6762 18.7849 32.6465 18.8866 32.6144 18.9841C32.5644 19.2604 32.5106 19.4828 32.4531 19.6514C32.3956 19.8199 32.311 19.9427 32.1993 20.0198ZM35.1479 17.9962C35.1146 18.0158 35.068 18.032 35.0082 18.0448C34.9518 18.0444 34.9236 18.0442 34.9236 18.0442C34.9039 18.0109 34.8668 17.9767 34.8122 17.9415C34.766 17.9014 34.7331 17.8647 34.7134 17.8314C34.6354 17.8325 34.5824 17.8188 34.5544 17.7904C34.5215 17.7537 34.4946 17.6798 34.4737 17.5687C34.4745 17.456 34.4624 17.2836 34.4374 17.0515C34.4074 16.811 34.3743 16.5556 34.3379 16.2853C34.2966 16.0067 34.2536 15.7347 34.209 15.4692C34.1643 15.2038 34.1268 14.9791 34.0965 14.7949C34.0612 14.6025 34.038 14.4872 34.0266 14.449C34.0069 14.4157 33.9948 14.3667 33.9902 14.3021C33.9857 14.2374 33.9902 14.1787 34.0039 14.1257C34.036 14.0282 34.1044 13.9824 34.2089 13.9881C34.3084 13.9855 34.4152 14.0236 34.5292 14.1023C34.6465 14.1678 34.7422 14.263 34.816 14.3878C34.8504 14.446 34.8974 14.6203 34.9569 14.9107C35.0114 15.1928 35.0639 15.5378 35.1142 15.9457C35.173 16.3487 35.2175 16.7657 35.2478 17.1967C35.2656 17.5116 35.2775 17.7122 35.2836 17.7984C35.2847 17.8763 35.2395 17.9422 35.1479 17.9962ZM34.186 12.1838C34.0861 12.2426 33.9557 12.269 33.7947 12.2628C33.6372 12.2434 33.4824 12.2 33.3302 12.1326C33.1814 12.052 33.0701 11.9493 32.9962 11.8245C32.9716 11.7828 32.9621 11.7099 32.9678 11.6055C32.9735 11.5012 32.9792 11.3969 32.9848 11.2926C32.9905 11.1882 32.9884 11.1277 32.9786 11.1111C33.0452 11.0718 33.0976 11.0465 33.1359 11.0352C33.1775 11.0107 33.2373 10.9979 33.3153 10.9968C33.53 11.1508 33.7434 11.2552 33.9554 11.3098C34.1758 11.3594 34.313 11.4301 34.3672 11.5216C34.4755 11.7046 34.5277 11.8309 34.5239 11.9005C34.5152 11.9617 34.4026 12.0561 34.186 12.1838ZM38.8639 16.3451C38.6875 16.4266 38.5711 16.4672 38.5147 16.4667C38.4666 16.4614 38.3856 16.4194 38.2716 16.3407C38.1607 16.3051 38.0846 16.2713 38.0433 16.2396C38.0104 16.2029 37.9882 16.1654 37.9768 16.1272C38.0185 16.1027 38.056 16.0806 38.0893 16.061C38.1177 16.033 38.1287 16.0041 38.1222 15.9742C38.1075 15.9493 38.1101 15.9253 38.1302 15.9022C38.1586 15.8743 38.1919 15.8547 38.2301 15.8433C38.3933 15.7584 38.5637 15.5907 38.7412 15.3402C38.9222 15.0765 39.0952 14.7613 39.2602 14.3948C39.4287 14.015 39.5765 13.6193 39.7037 13.2077C39.7529 12.7972 39.7807 12.4835 39.7871 12.2665C39.7886 12.0412 39.7682 11.8737 39.7258 11.764C39.6784 11.6461 39.6118 11.5619 39.5258 11.5116C39.4531 11.4646 39.3176 11.5108 39.1192 11.6502C38.9159 11.7812 38.7344 12.006 38.5746 12.3245C38.3494 12.7602 38.1851 13.1375 38.0817 13.4565C37.9784 13.7755 37.9065 14.1096 37.866 14.4589C37.8486 14.5814 37.841 14.7205 37.8433 14.8762C37.8539 15.0271 37.863 15.1564 37.8706 15.2641C37.8782 15.3719 37.882 15.4257 37.882 15.4257C37.9017 15.459 37.8763 15.5301 37.8059 15.6389C37.7438 15.7428 37.6794 15.8144 37.6128 15.8536C37.5696 15.8566 37.5066 15.8545 37.4237 15.8472C37.3442 15.8268 37.2739 15.784 37.213 15.7189C37.1301 15.7117 37.0687 15.7029 37.029 15.6927C36.9892 15.6825 36.9553 15.6632 36.9273 15.6348C36.8894 15.5898 36.8552 15.5034 36.8245 15.3756C36.7938 15.2478 36.7387 15.0502 36.6592 14.7829C36.5812 14.5371 36.5024 14.2805 36.4229 14.0132C36.3517 13.741 36.296 13.5045 36.2559 13.3037C36.2157 13.1029 36.2032 12.9869 36.2184 12.9555C36.2184 12.9555 36.2129 12.9082 36.2019 12.8137C36.1909 12.7192 36.1559 12.622 36.0968 12.5222C36.0544 12.4125 36.0277 12.3104 36.0167 12.2159C36.0141 12.1165 36.0029 12.0501 35.9832 12.0169C36.0018 11.9723 35.9927 11.843 35.9559 11.629C35.9192 11.415 35.8671 11.1371 35.7997 10.7953C35.7849 10.7703 35.7673 10.6741 35.7469 10.5066C35.7215 10.3308 35.6963 10.1269 35.6713 9.89472C35.6414 9.65427 35.609 9.40966 35.5741 9.16089C35.5427 8.89889 35.5094 8.67167 35.4741 8.47922C35.4904 8.27888 35.4891 8.10574 35.4701 7.9598C35.4546 7.80064 35.4686 7.6914 35.5121 7.63208C35.5489 7.59922 35.6013 7.57393 35.6694 7.55622C35.741 7.52528 35.8158 7.50927 35.8938 7.5082C35.9801 7.50222 36.0638 7.52024 36.1448 7.56226C36.1944 7.58914 36.2332 7.61677 36.2612 7.64514C36.2892 7.67352 36.3137 7.74328 36.3345 7.85444C36.3504 7.95728 36.3699 8.14215 36.393 8.40906C36.4195 8.66274 36.4544 9.03494 36.4976 9.52565C36.5597 10.1623 36.6315 10.7203 36.7129 11.1997C36.7944 11.6792 36.8737 12.0981 36.951 12.4565C37.0282 12.8149 37.0892 13.1269 37.1339 13.3923L37.2339 13.7037L37.369 13.2201C37.4398 13.0549 37.5108 12.8616 37.5819 12.6402C37.6531 12.4187 37.7174 12.2237 37.775 12.0551C37.8121 11.9659 37.87 11.8645 37.9487 11.7507C38.0309 11.6238 38.1138 11.5076 38.1975 11.4022C38.2811 11.2968 38.3455 11.2252 38.3906 11.1874C38.4106 11.1644 38.4657 11.1151 38.5558 11.0396C38.6459 10.964 38.7618 10.8846 38.9034 10.8011C39.0866 10.6931 39.257 10.6489 39.4145 10.6683C39.5803 10.6828 39.7715 10.7496 39.9881 10.8689C40.1831 10.9896 40.3387 11.1672 40.4549 11.4017C40.5663 11.6279 40.6202 11.871 40.6168 12.1311C40.5949 12.1889 40.5803 12.2592 40.5731 12.342C40.561 12.4164 40.5648 12.4703 40.5845 12.5036C40.6106 12.5667 40.607 12.7315 40.5737 12.998C40.5355 13.2562 40.4924 13.506 40.4443 13.7476C40.3879 13.994 40.2982 14.2601 40.1752 14.5458C40.0472 14.8231 39.9119 15.088 39.7691 15.3404C39.6298 15.5796 39.5 15.7684 39.3796 15.9066C39.3179 15.9542 39.2319 16.0273 39.1218 16.1259C39.0067 16.2161 38.9207 16.2892 38.8639 16.3451ZM44.9725 12.4427C44.8862 12.6955 44.7338 12.9031 44.5154 13.0655C44.3053 13.223 44.0649 13.3198 43.7942 13.3559C43.5185 13.3836 43.2508 13.3394 42.9911 13.2231C42.7412 13.1235 42.5265 12.9695 42.3471 12.761C42.1627 12.5443 41.9739 12.2347 41.7808 11.8323C41.6138 11.4931 41.5259 11.1073 41.5172 10.6748C41.5036 10.234 41.5495 9.80855 41.6551 9.39846C41.7691 8.98348 41.9256 8.64999 42.1247 8.39799C42.2005 8.24117 42.2824 8.14238 42.3706 8.10162C42.4622 8.04763 42.6046 7.97497 42.7977 7.88364C43.004 7.79572 43.1678 7.74973 43.2889 7.74567C43.4184 7.7367 43.5369 7.75663 43.6444 7.80548C43.8432 7.85667 44.0003 7.9324 44.1158 8.03267C44.2264 8.12462 44.3161 8.22884 44.385 8.34532C44.46 8.54801 44.468 8.84628 44.409 9.24014C44.3533 9.62078 44.204 9.99491 43.9609 10.3625C43.8122 10.5288 43.627 10.6715 43.4055 10.7908C43.1841 10.9101 42.973 10.9615 42.7723 10.9451C42.5747 10.9718 42.478 11.0456 42.4821 11.1666C42.4814 11.2792 42.5586 11.5143 42.7139 11.8716C42.8676 12.2074 43.0304 12.4257 43.2023 12.5264C43.3693 12.6187 43.531 12.6357 43.6873 12.5772C43.8736 12.5123 44.0175 12.4612 44.1189 12.4239C44.2238 12.3733 44.3224 12.2647 44.4148 12.0981C44.4989 11.9363 44.5551 11.8415 44.5835 11.8135C44.6069 11.7773 44.6221 11.7459 44.6289 11.7194C44.6391 11.6798 44.6613 11.5938 44.6953 11.4615C44.7192 11.3689 44.7404 11.3003 44.7589 11.2557C44.7725 11.2028 44.8002 11.1641 44.8418 11.1395C44.8835 11.115 44.9333 11.1137 44.9912 11.1357C45.0442 11.1493 45.0923 11.1546 45.1354 11.1517C45.2187 11.1026 45.2649 11.1427 45.274 11.272C45.2914 11.3964 45.2754 11.5685 45.2258 11.7885C45.1713 12.0002 45.0869 12.2182 44.9725 12.4427ZM43.3947 9.80413C43.4617 9.70854 43.523 9.59386 43.5787 9.46008C43.6294 9.31798 43.661 9.18153 43.6735 9.05074C43.6894 8.90672 43.6776 8.80143 43.6383 8.73487C43.5693 8.61838 43.4586 8.5546 43.306 8.54351C43.1485 8.52411 42.9787 8.60734 42.7966 8.79318C42.7198 8.87213 42.6526 8.99589 42.595 9.16444C42.5326 9.32468 42.4816 9.49494 42.4423 9.67523C42.4112 9.85061 42.3895 10.0037 42.377 10.1345C42.3728 10.2604 42.384 10.3267 42.4105 10.3335C42.4601 10.3604 42.5506 10.352 42.682 10.3082C42.8084 10.2562 42.94 10.1843 43.0767 10.0925C43.2217 9.99584 43.3277 9.89972 43.3947 9.80413ZM48.2154 10.9695C48.017 11.1088 47.8097 11.2141 47.5936 11.2854C47.3857 11.3518 47.1856 11.3743 46.9933 11.353C46.8043 11.3184 46.6406 11.241 46.502 11.1207C46.3748 11.0385 46.2989 10.9767 46.2743 10.9351C46.2447 10.8851 46.2493 10.8264 46.2879 10.7587C46.3545 10.7195 46.4251 10.7059 46.4997 10.7181C46.5777 10.717 46.6748 10.7103 46.7911 10.6979C46.98 10.7324 47.1644 10.7023 47.3442 10.6076C47.5324 10.5079 47.6817 10.3806 47.7923 10.2257C47.9028 10.0708 47.9369 9.93855 47.8945 9.82889C47.8748 9.79561 47.8278 9.74473 47.7536 9.67624C47.6794 9.60776 47.5986 9.53758 47.5111 9.46568C47.0992 9.28201 46.748 9.06815 46.4576 8.82409C46.1706 8.56681 45.968 8.33832 45.8499 8.13863C45.7612 7.98886 45.7135 7.80377 45.7067 7.58338C45.695 7.35466 45.7337 7.13543 45.8231 6.92569C45.8795 6.67926 45.9624 6.43965 46.0718 6.20687C46.1812 5.97409 46.3004 5.75795 46.4295 5.55845C46.567 5.35404 46.6983 5.18687 46.8236 5.05692C46.9153 5.00294 47.0434 4.94425 47.2081 4.88087C47.3728 4.81749 47.4941 4.78526 47.5721 4.78419C47.6834 4.76349 47.825 4.80348 47.9969 4.90417C48.1639 4.99654 48.2892 5.11345 48.3729 5.2549C48.4074 5.31314 48.435 5.39784 48.4559 5.509C48.4767 5.62016 48.4865 5.76023 48.4854 5.9292C48.5062 6.04036 48.5205 6.14981 48.528 6.25756C48.5307 6.35698 48.5419 6.42334 48.5615 6.45662C48.5741 6.57268 48.5428 6.6528 48.4679 6.69697C48.3963 6.72791 48.3034 6.73219 48.189 6.7098C48.0781 6.67417 47.9723 6.61871 47.8715 6.5434C47.7644 6.43823 47.6928 6.34574 47.6568 6.26595C47.616 6.17784 47.5976 6.07084 47.6017 5.94496C47.6392 5.79945 47.6481 5.71005 47.6284 5.67677C47.6087 5.64348 47.5531 5.65384 47.4614 5.70782C47.4031 5.74218 47.317 5.84342 47.2031 6.01156C47.0925 6.16646 46.9842 6.35369 46.8783 6.57325C46.7757 6.77957 46.6988 6.98195 46.6477 7.18037C46.5781 7.42339 46.5463 7.588 46.5523 7.6742C46.5667 7.75549 46.6158 7.86685 46.6994 8.0083C46.7684 8.12479 46.8795 8.25568 47.0328 8.40096C47.1945 8.54134 47.3217 8.62347 47.4145 8.64736C47.4145 8.64736 47.4781 8.68842 47.6053 8.77056C47.7276 8.84437 47.8673 8.91914 48.0245 8.99487C48.581 9.38505 48.8699 9.73099 48.8912 10.0327C48.9124 10.3344 48.6871 10.6466 48.2154 10.9695Z" fill="#6637ED"/>
</svg>
