<svg width="64" height="45" viewBox="0 0 64 45" fill="none" xmlns="http://www.w3.org/2000/svg">
<path d="M10.644 42.2034C10.5104 42.3383 10.3657 42.3786 10.2101 42.3244C10.0545 42.2703 9.89776 42.1382 9.73986 41.9283C9.5903 41.7134 9.45777 41.4325 9.34227 41.0853C9.32485 40.9609 9.29909 40.8415 9.26501 40.7269C9.23585 40.6206 9.20404 40.5384 9.16959 40.4802C9.14686 40.4038 9.10237 40.2336 9.03609 39.9697C8.9649 39.6975 8.88651 39.3846 8.80092 39.0311C8.72366 38.6726 8.6447 38.3208 8.56403 37.9756C8.48677 37.6172 8.42239 37.3185 8.37088 37.0795C8.32278 36.8273 8.29968 36.6839 8.30157 36.6491C8.33489 36.6294 8.34681 36.5831 8.33734 36.5102C8.32787 36.4372 8.30591 36.3716 8.27145 36.3134C8.23207 36.2468 8.20026 36.1646 8.17602 36.0666C8.16012 35.9638 8.15898 35.8859 8.1726 35.833C8.14799 35.7914 8.12925 35.7407 8.11637 35.681C8.1069 35.608 8.09232 35.5549 8.07263 35.5216C8.05294 35.4883 8.04158 35.4501 8.03855 35.407C8.04384 35.359 8.03665 35.3184 8.01696 35.2851C8.01279 35.1641 7.98684 34.9494 7.93911 34.6409C7.8948 34.3191 7.83836 33.9484 7.76981 33.5288C7.70466 33.0959 7.63459 32.6547 7.55959 32.2051C7.47968 31.7473 7.40374 31.3151 7.33178 30.9087C7.25982 30.5022 7.19733 30.1688 7.1443 29.9083C7.09128 29.6478 7.05493 29.5009 7.03524 29.4676C6.99586 29.401 6.98298 29.3413 6.99661 29.2884C7.01023 29.2354 7.05036 29.1894 7.117 29.1501C7.12722 29.1104 7.14652 29.0766 7.17492 29.0486C7.21164 29.0158 7.24666 28.9895 7.27998 28.9699C7.27998 28.9699 7.30648 28.9767 7.35949 28.9904C7.41249 29.004 7.492 29.0245 7.59802 29.0518C7.69911 29.0708 7.77597 29.1153 7.8286 29.1852C7.88956 29.2503 7.94957 29.3328 8.00864 29.4326C8.07264 29.5408 8.11675 29.6438 8.14099 29.7418C8.16522 29.8397 8.18662 29.9898 8.20519 30.192C8.22375 30.3943 8.25236 30.7085 8.291 31.1345C8.3054 31.2158 8.32434 31.3618 8.34782 31.5723C8.37131 31.7829 8.39877 32.0192 8.43021 32.2812C8.46998 32.5383 8.50313 32.7937 8.52965 33.0474C8.55957 33.2878 8.58476 33.4918 8.60522 33.6593C8.634 33.8219 8.65332 33.9115 8.66316 33.9281C8.68285 33.9614 8.69573 34.0211 8.70179 34.1073C8.71618 34.1886 8.73626 34.289 8.76201 34.4085C8.76807 34.4947 8.78133 34.6215 8.80179 34.789C8.81732 34.9482 8.83607 35.1223 8.85805 35.3113C8.88342 35.4871 8.90728 35.6413 8.92963 35.7741C8.94706 35.8984 8.96069 35.9689 8.97053 35.9856C8.99022 36.0189 9.00575 36.0546 9.01711 36.0928C9.0368 36.1261 9.03983 36.1692 9.02621 36.2221C8.99289 36.2417 8.98683 36.279 9.00804 36.3338C9.03265 36.3754 9.04496 36.3962 9.04496 36.3962C9.09418 36.4794 9.15799 36.7392 9.23639 37.1755C9.28638 37.3929 9.35342 37.6676 9.43749 37.9995C9.52156 38.3315 9.60961 38.6892 9.70164 39.0726C9.79707 39.4428 9.89174 39.8022 9.98566 40.1508C10.0796 40.4994 10.1638 40.8032 10.2384 41.0622C10.3263 41.3246 10.3973 41.5016 10.4514 41.5931C10.5696 41.7928 10.6417 41.9243 10.6678 41.9874C10.6989 42.0589 10.6909 42.1309 10.644 42.2034ZM5.26002 40.0235C5.21005 40.0529 5.14758 40.0897 5.07261 40.1339C4.99273 40.1697 4.89713 40.198 4.78582 40.2187C4.66088 40.2923 4.57021 40.3289 4.5138 40.3285C4.45246 40.3198 4.38791 40.2961 4.32013 40.2575C4.15468 40.1867 4.09712 40.1084 4.14747 40.0226C4.1929 39.9285 4.35986 39.774 4.64834 39.5591C4.7252 39.4802 4.89197 39.3539 5.14866 39.1802C5.40534 39.0065 5.71447 38.8075 6.07603 38.5832C6.44099 38.3457 6.82091 38.105 7.21579 37.8611C7.61899 37.6123 8.008 37.3775 8.38281 37.1567C8.7527 36.9275 9.07924 36.7295 9.36243 36.5626C9.6407 36.3874 9.83397 36.2679 9.94225 36.2041C10.1588 36.0765 10.3095 35.9989 10.3943 35.9714C10.4791 35.9439 10.5944 35.9489 10.7402 35.9864C10.9389 36.0376 11.0561 36.1313 11.0917 36.2674C11.1224 36.3952 11.0321 36.4989 10.8208 36.5785C10.7675 36.6211 10.6641 36.6933 10.5108 36.7948C10.3574 36.8964 10.2107 36.9997 10.0707 37.1047C10.0373 37.1243 9.9107 37.2045 9.69074 37.3454C9.46585 37.4779 9.18512 37.6489 8.84855 37.8585C8.51538 38.0548 8.15969 38.27 7.78147 38.504C7.39833 38.7298 7.03015 38.9524 6.67692 39.1717C6.31877 39.3828 6.01305 39.5685 5.75977 39.729C5.50989 39.8762 5.34331 39.9744 5.26002 40.0235ZM7.89539 43.823C7.76175 43.9579 7.61296 44.0007 7.44902 43.9514C7.2934 43.8972 7.14081 43.7627 6.99125 43.5479C6.84168 43.333 6.70915 43.0521 6.59366 42.7049C6.57623 42.5806 6.55048 42.4611 6.5164 42.3465C6.48724 42.2403 6.45543 42.158 6.42097 42.0998C6.39825 42.0234 6.35375 41.8532 6.28748 41.5893C6.21628 41.3171 6.13789 41.0042 6.0523 40.6507C5.97504 40.2922 5.89608 39.9404 5.81542 39.5952C5.73816 39.2368 5.67377 38.9381 5.62227 38.6991C5.57417 38.4469 5.55106 38.3035 5.55296 38.2687C5.58627 38.2491 5.5982 38.2028 5.58873 38.1298C5.57926 38.0568 5.55729 37.9912 5.52283 37.933C5.48346 37.8664 5.45165 37.7842 5.42741 37.6862C5.4115 37.5834 5.41036 37.5055 5.42399 37.4526C5.39938 37.411 5.38063 37.3603 5.36775 37.3006C5.35828 37.2276 5.3437 37.1745 5.32401 37.1412C5.30432 37.1079 5.29296 37.0697 5.28993 37.0266C5.29523 36.9786 5.28803 36.938 5.26834 36.9047C5.26417 36.7837 5.23822 36.569 5.1905 36.2605C5.14618 35.9387 5.08975 35.568 5.02119 35.1484C4.95604 34.7155 4.88597 34.2743 4.81098 33.8247C4.73106 33.3669 4.65512 32.9347 4.58316 32.5283C4.5112 32.1218 4.44871 31.7884 4.39569 31.5279C4.34267 31.2674 4.30631 31.1205 4.28662 31.0872C4.24724 31.0206 4.23436 30.9609 4.24799 30.908C4.26162 30.8551 4.30175 30.809 4.36838 30.7697C4.3786 30.73 4.39791 30.6962 4.4263 30.6682C4.46303 30.6354 4.49805 30.6091 4.53136 30.5895C4.53136 30.5895 4.55787 30.5963 4.61087 30.61C4.66388 30.6236 4.74339 30.6441 4.8494 30.6714C4.95049 30.6904 5.02735 30.7349 5.07998 30.8048C5.14094 30.8699 5.20096 30.9524 5.26003 31.0522C5.32402 31.1604 5.36813 31.2634 5.39237 31.3614C5.41661 31.4593 5.43801 31.6094 5.45657 31.8116C5.47514 32.0139 5.50374 32.3281 5.54239 32.7541C5.55678 32.8354 5.57572 32.9814 5.59921 33.192C5.62269 33.4025 5.65016 33.6388 5.6816 33.9008C5.72137 34.1579 5.75451 34.4133 5.78103 34.667C5.81096 34.9074 5.83615 35.1114 5.8566 35.2789C5.88539 35.4415 5.9047 35.5311 5.91455 35.5477C5.93424 35.581 5.94711 35.6407 5.95318 35.7269C5.96757 35.8082 5.98764 35.9086 6.0134 36.0281C6.01946 36.1143 6.03272 36.2411 6.05317 36.4086C6.06871 36.5678 6.08746 36.7419 6.10943 36.9309C6.13481 37.1067 6.15867 37.2609 6.18102 37.3937C6.19844 37.518 6.21207 37.5886 6.22192 37.6052C6.24161 37.6385 6.25713 37.6742 6.2685 37.7124C6.28819 37.7457 6.29122 37.7888 6.27759 37.8417C6.24427 37.8613 6.23822 37.8986 6.25942 37.9534C6.28404 37.995 6.29634 38.0158 6.29634 38.0158C6.34557 38.099 6.40938 38.3588 6.48778 38.7951C6.53777 39.0125 6.6048 39.2872 6.68887 39.6191C6.77295 39.9511 6.86099 40.3088 6.95302 40.6922C7.04845 41.0624 7.14313 41.4218 7.23705 41.7704C7.33096 42.119 7.41522 42.4228 7.48983 42.6818C7.57768 42.9442 7.64868 43.1212 7.70283 43.2127C7.82097 43.4124 7.8931 43.5439 7.91923 43.607C7.95028 43.6785 7.94233 43.7505 7.89539 43.823ZM4.5454 37.0782C4.49542 37.1077 4.43295 37.1445 4.35799 37.1887C4.27811 37.2245 4.18251 37.2528 4.0712 37.2735C3.94626 37.3471 3.85559 37.3837 3.79917 37.3833C3.73784 37.3745 3.67328 37.3509 3.60551 37.3123C3.44005 37.2414 3.3825 37.1631 3.43285 37.0774C3.47828 36.9833 3.64523 36.8288 3.93372 36.6139C4.01058 36.535 4.17735 36.4086 4.43403 36.2349C4.69072 36.0613 4.99984 35.8623 5.3614 35.638C5.72637 35.4005 6.10629 35.1598 6.50117 34.9159C6.90437 34.6671 7.29338 34.4323 7.66819 34.2114C8.03808 33.9822 8.36462 33.7842 8.64781 33.6174C8.92608 33.4422 9.11935 33.3227 9.22763 33.2589C9.44419 33.1313 9.59487 33.0537 9.67968 33.0262C9.76448 32.9986 9.87977 33.0036 10.0255 33.0412C10.2243 33.0924 10.3415 33.186 10.3771 33.3221C10.4078 33.4499 10.3175 33.5536 10.1062 33.6332C10.0528 33.6759 9.94948 33.748 9.79615 33.8496C9.64282 33.9512 9.49612 34.0545 9.35604 34.1594C9.32272 34.1791 9.19608 34.2593 8.97611 34.4001C8.75123 34.5326 8.4705 34.7037 8.13393 34.9132C7.80076 35.1095 7.44507 35.3247 7.06685 35.5588C6.68371 35.7846 6.31553 36.0071 5.9623 36.2265C5.60414 36.4375 5.29843 36.6233 5.04515 36.7838C4.79527 36.931 4.62869 37.0292 4.5454 37.0782ZM13.7702 38.0723C13.5725 38.099 13.3709 38.0999 13.1653 38.0752C12.9548 38.0421 12.8066 38.0004 12.7206 37.9501C12.6763 37.8752 12.6593 37.8179 12.6695 37.7782C12.6748 37.7302 12.7382 37.676 12.8598 37.6156C12.9847 37.542 13.1944 37.4409 13.489 37.3122C13.5889 37.2533 13.709 37.1714 13.849 37.0664C13.9891 36.9614 14.1118 36.8555 14.217 36.7486C14.3306 36.6368 14.381 36.551 14.3681 36.4912C14.4097 36.4667 14.4107 36.4493 14.3709 36.4391C14.3262 36.4205 14.2774 36.4044 14.2244 36.3908C14.1911 36.4104 14.1462 36.42 14.0898 36.4196C14.0285 36.4108 13.9811 36.4163 13.9478 36.4359C13.9232 36.3943 13.8545 36.3731 13.7417 36.3722C13.6322 36.3582 13.526 36.359 13.4231 36.3748C13.1512 36.333 12.9142 36.2931 12.712 36.2552C12.5049 36.2089 12.4057 36.1551 12.4144 36.0939C12.3947 36.0606 12.3849 36.044 12.3849 36.044C12.38 36.0357 12.3775 36.0315 12.3775 36.0315C12.3192 36.0659 12.2033 36.0219 12.0299 35.8997C11.8648 35.7725 11.7429 35.6424 11.6642 35.5093C11.6051 35.4094 11.5604 35.2674 11.5301 35.0833C11.4949 34.8909 11.478 34.682 11.4795 34.4567C11.481 34.2314 11.5039 34.0327 11.5482 33.8608C11.6145 33.631 11.7133 33.3708 11.8446 33.0802C11.9711 32.7813 12.1056 32.5056 12.2484 32.2532C12.3945 31.9875 12.5302 31.7897 12.6555 31.6598C12.771 31.5132 12.8912 31.4031 13.0161 31.3295C13.1494 31.251 13.2832 31.2114 13.4176 31.2107C13.5255 31.2032 13.6374 31.2215 13.7533 31.2654C13.8725 31.2961 13.9818 31.3384 14.081 31.3921C14.1836 31.4327 14.2604 31.4771 14.3115 31.5256C14.3706 31.6254 14.4287 31.7426 14.4859 31.8773C14.5382 32.0036 14.5747 32.1223 14.5955 32.2335C14.6247 32.3397 14.6101 32.41 14.5518 32.4444C14.5518 32.4444 14.5418 32.4559 14.5217 32.4789C14.5051 32.4888 14.5091 32.5145 14.5337 32.5561C14.5829 32.6393 14.577 32.7718 14.5161 32.9536C14.4218 33.155 14.3238 33.3025 14.2219 33.3962C14.1152 33.4815 14.0173 33.4775 13.9283 33.384C13.8836 33.3655 13.8498 33.3462 13.8267 33.3261C13.8036 33.3061 13.7754 33.3059 13.742 33.3255C13.742 33.3255 13.7222 33.3204 13.6824 33.3101C13.6427 33.2999 13.6055 33.2657 13.5711 33.2074C13.5514 33.1741 13.5467 33.1376 13.5569 33.098C13.5622 33.05 13.5648 33.026 13.5648 33.026C13.6065 33.0014 13.6335 32.9238 13.646 32.793C13.6536 32.6539 13.6504 32.5155 13.6363 32.3779C13.6257 32.227 13.6081 32.1308 13.5835 32.0892C13.554 32.0393 13.5284 32.0151 13.5068 32.0166C13.4936 32.0132 13.4536 32.0311 13.387 32.0703C13.2999 32.189 13.1977 32.339 13.0804 32.5203C12.963 32.7017 12.854 32.8782 12.7533 33.0497C12.656 33.208 12.5937 33.3401 12.5665 33.4459C12.5676 33.5238 12.5689 33.5735 12.5704 33.5951C12.567 33.6083 12.5487 33.6247 12.5154 33.6444C12.4957 33.6111 12.4764 33.6449 12.4574 33.7458C12.4419 33.8335 12.4245 33.956 12.4052 34.1132C12.3942 34.2656 12.3833 34.4179 12.3723 34.5702C12.3647 34.7093 12.3591 34.8137 12.3553 34.8832C12.3485 34.9097 12.3572 34.9719 12.3814 35.0698C12.4091 35.1545 12.4426 35.2301 12.482 35.2967C12.5077 35.4162 12.5537 35.4844 12.62 35.5015C12.6813 35.5103 12.8172 35.5312 13.0277 35.5642C13.4472 35.6088 13.7821 35.6527 14.0324 35.696C14.2827 35.7393 14.4765 35.7821 14.6139 35.8246C14.7514 35.867 14.8506 35.9208 14.9115 35.9859C15.2091 36.1471 15.3682 36.3115 15.3886 36.479C15.4091 36.6465 15.3364 36.8464 15.1706 37.0788C15.1119 37.1694 14.9942 37.2837 14.8174 37.4215C14.6406 37.5594 14.4522 37.6872 14.2523 37.805C14.0573 37.9311 13.8966 38.0202 13.7702 38.0723ZM20.2078 34.1779C20.0753 34.1438 19.9256 34.0805 19.7586 33.9882C19.5867 33.8875 19.4192 33.7562 19.256 33.5942C19.1999 33.5375 19.1375 33.4509 19.0686 33.3344C19.008 33.213 18.9587 33.1298 18.9209 33.0848C18.9304 33.1577 18.9256 33.2447 18.9067 33.3456C18.8912 33.4333 18.8707 33.5127 18.8454 33.5837C18.8318 33.6366 18.7962 33.7474 18.7386 33.9159C18.6762 34.0762 18.6039 34.2198 18.5217 34.3467C18.3502 34.6834 18.1778 34.914 18.0044 35.0387C17.8393 35.1584 17.6186 35.165 17.3422 35.0586C17.1449 35.0289 16.9778 34.9647 16.8407 34.8659C16.712 34.7623 16.6037 34.5792 16.5158 34.3168C16.3602 34.0157 16.2345 33.7083 16.1387 33.3945C16.0379 33.0723 15.9539 32.6169 15.8864 32.0283C15.8595 31.5841 15.8451 31.2559 15.8432 31.0438C15.8364 30.8234 15.8356 30.6892 15.8409 30.6412C15.9412 30.526 16.0478 30.4688 16.1606 30.4697C16.2685 30.4622 16.3653 30.5118 16.4509 30.6185C16.5501 30.6722 16.6254 30.8186 16.6769 31.0575C16.7368 31.2916 16.7778 31.5984 16.8002 31.9779C16.851 32.3295 16.9101 32.6762 16.9775 33.018C17.0532 33.3549 17.1418 33.6281 17.2433 33.8376C17.3448 34.0471 17.4661 34.1383 17.6074 34.1112C17.7069 34.1087 17.8286 34.0201 17.9725 33.8456C18.1247 33.6661 18.2386 33.3746 18.3143 32.9709C18.3984 32.5623 18.3928 32.0213 18.2978 31.348C18.266 31.1423 18.2298 30.9673 18.1893 30.8228C18.1438 30.6701 18.0785 30.5122 17.9933 30.3492C17.9176 30.2591 17.8701 30.1693 17.8507 30.0797C17.8348 29.9769 17.8596 29.8669 17.9251 29.7498C17.9338 29.6885 17.9575 29.6241 17.9961 29.5565C18.0298 29.4805 18.0673 29.4584 18.1085 29.4902L18.3011 29.3599C18.3294 29.332 18.3626 29.3405 18.4004 29.3855C18.4417 29.4173 18.493 29.4376 18.5543 29.4463C18.6903 29.4672 18.8112 29.6147 18.9173 29.8889C19.0233 30.163 19.1134 30.5812 19.1877 31.1434C19.2312 31.5778 19.2756 31.8995 19.3206 32.1086C19.374 32.3128 19.4458 32.5006 19.5359 32.6719C19.6245 32.8216 19.7373 32.9459 19.8744 33.0447C20.0115 33.1435 20.1745 33.2101 20.3634 33.2447C20.4895 33.2489 20.5788 33.286 20.6315 33.356C20.6924 33.4211 20.7483 33.506 20.799 33.6108C20.8267 33.6955 20.8136 33.7873 20.7598 33.8863C20.7095 33.9721 20.6343 34.0444 20.5344 34.1033C20.4344 34.1622 20.3256 34.1871 20.2078 34.1779ZM21.9374 32.5697C21.8927 32.5511 21.8431 32.5242 21.7886 32.489C21.7424 32.4489 21.7094 32.4122 21.6898 32.379C21.6799 32.3623 21.6634 32.344 21.6403 32.3239C21.6256 32.299 21.6015 32.2963 21.5682 32.3159C21.5285 32.3057 21.4885 32.2002 21.4484 31.9994C21.4116 31.7854 21.3768 31.5367 21.3438 31.2531C21.3192 30.9646 21.2995 30.6845 21.2847 30.4127C21.2733 30.1277 21.2682 29.9006 21.2693 29.7317C21.2962 29.6822 21.3015 29.6342 21.2852 29.5876C21.2724 29.5279 21.2576 29.5029 21.2409 29.5128C21.2409 29.5128 21.2396 29.463 21.2369 29.3636C21.2377 29.251 21.2432 29.1748 21.2534 29.1351C21.2511 28.9794 21.2322 28.8334 21.1966 28.6973C21.1561 28.5529 21.1029 28.444 21.037 28.3706C20.979 28.3486 20.9342 28.3582 20.9024 28.3994C20.8706 28.4406 20.8547 28.4612 20.8547 28.4612C20.8263 28.4891 20.7862 28.5352 20.7343 28.5994C20.6858 28.6504 20.6465 28.7073 20.6162 28.77C20.5034 29.016 20.4112 29.1545 20.3396 29.1854C20.2631 29.2081 20.1242 29.1441 19.9228 28.9934C19.8353 28.9216 19.7834 28.8624 19.7671 28.8158C19.7509 28.7693 19.7571 28.7039 19.7859 28.6197C19.818 28.5222 19.8584 28.4479 19.9068 28.3969C19.9504 28.3376 19.9814 28.2856 19.9999 28.241C20.0571 28.1288 20.1075 28.043 20.151 27.9837C20.2029 27.9195 20.243 27.8734 20.2714 27.8455C20.4486 27.6513 20.6244 27.5308 20.799 27.4841C20.9735 27.4373 21.1499 27.4793 21.3283 27.6098C21.5286 27.6826 21.6828 27.8105 21.7911 27.9935C21.8945 28.1682 21.9568 28.4064 21.978 28.7081L21.9638 28.969C21.9714 29.0767 21.9877 29.1232 22.0127 29.1085C22.046 29.0889 22.0663 29.0377 22.0735 28.9549C22.0788 28.9069 22.0992 28.8275 22.1348 28.7168C22.1704 28.606 22.2006 28.5433 22.2256 28.5286C22.2256 28.5286 22.2315 28.5195 22.2432 28.5014C22.2633 28.4783 22.2561 28.4377 22.2216 28.3794C22.2319 28.3397 22.2421 28.3001 22.2523 28.2604C22.2709 28.2158 22.2801 28.1935 22.2801 28.1935C22.3134 28.1739 22.3538 28.0996 22.4011 27.9707C22.4518 27.8286 22.5118 27.6642 22.5811 27.4775C22.6333 27.357 22.6969 27.2746 22.7719 27.2305C22.929 27.0593 23.12 27.0309 23.3449 27.1453C23.5781 27.2547 23.7809 27.455 23.9532 27.7463L24.0895 28.5748L24.2144 27.7606C24.225 27.6646 24.2405 27.5769 24.261 27.4976C24.2897 27.4133 24.3151 27.3422 24.3371 27.2844C24.3193 27.2164 24.3246 27.1684 24.353 27.1404C24.3814 27.1124 24.3956 27.0985 24.3956 27.0985C24.3956 27.0985 24.4039 27.0936 24.4205 27.0837C24.4323 27.0656 24.4308 27.0441 24.416 27.0191C24.4379 26.9613 24.4665 26.9052 24.5017 26.8508C24.532 26.788 24.5456 26.7351 24.5426 26.692C24.6498 26.5503 24.7739 26.4659 24.9152 26.4388C25.0515 26.4034 25.2129 26.4485 25.3996 26.5742C25.517 26.6397 25.602 26.7074 25.6546 26.7774C25.7072 26.8474 25.7779 26.9572 25.8665 27.107C25.9236 27.2416 25.966 27.3513 25.9937 27.436C26.0247 27.5075 26.0583 27.5831 26.0942 27.6629C26.1302 27.7427 26.1792 27.854 26.2413 27.997C26.2474 28.0832 26.2684 28.1662 26.3044 28.246C26.3487 28.3209 26.3905 28.3916 26.4299 28.4581C26.4939 28.5663 26.5424 28.6387 26.5753 28.6754C26.6033 28.7038 26.6465 28.7008 26.7048 28.6665C26.8066 28.5728 26.9304 28.4213 27.0762 28.212C27.2253 27.9894 27.3228 27.803 27.3686 27.6525C27.4247 27.4624 27.4985 27.3404 27.5901 27.2864C27.6851 27.2192 27.7747 27.2281 27.8587 27.3133C27.8951 27.3367 27.9102 27.4288 27.9042 27.5894C27.9065 27.7452 27.8938 27.9041 27.8661 28.0663C27.8468 28.2235 27.8164 28.3144 27.7747 28.339C27.7497 28.3537 27.7354 28.3958 27.7316 28.4654C27.7229 28.5266 27.7051 28.582 27.6782 28.6315C27.6544 28.7241 27.628 28.8125 27.5993 28.8968C27.5788 28.9762 27.5353 29.0355 27.4687 29.0748C27.4354 29.0944 27.4011 29.1314 27.3659 29.1858C27.3341 29.227 27.289 29.2648 27.2307 29.2991C27.1622 29.3732 27.0257 29.4368 26.8213 29.4899C26.6252 29.5381 26.448 29.4855 26.2897 29.3318C26.2022 29.26 26.0869 29.1315 25.9438 28.9466C25.7958 28.7533 25.6769 28.5428 25.5871 28.3152C25.5318 28.1458 25.4714 27.9962 25.4059 27.8665C25.3404 27.7368 25.3054 27.6396 25.3008 27.5749C25.2861 27.55 25.2516 27.4917 25.1975 27.4002C25.1384 27.3004 25.0964 27.2578 25.0714 27.2725C25.0381 27.2921 24.9959 27.4012 24.9448 27.5996C24.8971 27.7848 24.8441 28.018 24.7858 28.2992C24.7358 28.5755 24.6908 28.8601 24.6507 29.1531C24.6106 29.446 24.5873 29.701 24.5809 29.918C24.5601 30.0537 24.5599 30.2053 24.5803 30.3727C24.6008 30.5402 24.6034 30.6397 24.5883 30.671C24.5694 30.7719 24.5035 30.822 24.3907 30.8211C24.2862 30.8154 24.1686 30.7781 24.038 30.7091C23.9835 30.6739 23.9422 30.6422 23.9142 30.6138C23.8812 30.5771 23.8492 30.523 23.8182 30.4515C23.7905 30.3668 23.7557 30.2415 23.7137 30.0755C23.68 29.9046 23.6285 29.6656 23.5592 29.3586C23.4834 29.0217 23.4124 28.7213 23.3461 28.4574C23.2833 28.1803 23.2518 28.0417 23.2518 28.0417C23.2321 28.0084 23.1894 28.0785 23.1235 28.252C23.0527 28.4171 22.9759 28.6195 22.893 28.8591C22.8721 28.9948 22.8284 29.2057 22.7618 29.4918C22.6952 29.778 22.6267 30.0988 22.5563 30.4545C22.4859 30.8102 22.4312 31.1734 22.3922 31.5443C22.3525 32.0277 22.3048 32.3363 22.2492 32.4701C22.2018 32.599 22.0979 32.6322 21.9374 32.5697ZM29.7361 27.7724C29.61 27.7681 29.4824 27.7423 29.3533 27.6949C29.2193 27.6393 29.108 27.5365 29.0194 27.3868C28.9702 27.3036 28.9031 27.1523 28.8183 26.933C28.7335 26.7136 28.6464 26.462 28.557 26.178C28.4676 25.8941 28.3881 25.6267 28.3184 25.376C28.3131 25.1772 28.2953 24.9857 28.265 24.8016C28.2347 24.6175 28.2097 24.5087 28.19 24.4755C28.1476 24.3658 28.0995 24.237 28.0458 24.0892C28.0003 23.9364 27.9623 23.7962 27.9316 23.6684C27.9009 23.5406 27.889 23.4634 27.8958 23.437C27.9128 23.3708 27.948 23.3164 28.0014 23.2737C28.0499 23.2228 28.1131 23.1967 28.1911 23.1956C28.2725 23.1813 28.3545 23.206 28.437 23.2696C28.5877 23.3154 28.7049 23.4091 28.7886 23.5505C28.8673 23.6836 28.9397 23.9103 29.0055 24.2306C29.029 24.4412 29.0698 24.6809 29.1277 24.9497C29.1856 25.2185 29.2421 25.4658 29.297 25.6915C29.3553 25.904 29.4 26.046 29.431 26.1175L29.2255 26.3396C29.2883 26.123 29.3403 25.9072 29.3816 25.6921C29.4179 25.4688 29.4406 25.2983 29.4497 25.1807C29.4781 24.9059 29.5053 24.6767 29.5315 24.493C29.561 24.296 29.6049 24.057 29.6632 23.7757C29.7165 23.4862 29.81 23.274 29.9437 23.1392C30.0807 22.9911 30.1951 22.8901 30.2867 22.8361C30.4896 22.7614 30.692 22.7712 30.8938 22.8655C31.099 22.9465 31.3069 23.127 31.5174 23.4069C31.5863 23.5234 31.655 23.6681 31.7236 23.8409C31.8004 24.0088 31.8389 24.0927 31.8389 24.0927C31.8389 24.0927 31.8538 23.9661 31.8837 23.7128C31.9219 23.4547 31.9961 23.1529 32.1063 22.8074C32.1956 22.5977 32.3103 22.4403 32.4504 22.3354C32.5856 22.2221 32.7484 22.1935 32.9388 22.2496C33.2243 22.2384 33.4717 22.3339 33.6811 22.5359C33.8856 22.7296 34.0794 23.0194 34.2627 23.4051C34.3657 23.6362 34.4575 23.8009 34.5382 23.8992C34.6139 23.9892 34.698 24.0744 34.7903 24.1546C34.8767 24.1486 34.931 24.212 34.9533 24.3447C34.9708 24.469 34.9503 24.5484 34.892 24.5828C34.8087 24.6319 34.7031 24.6717 34.5751 24.7022C34.4555 24.7278 34.3319 24.7277 34.2043 24.7019C34.0801 24.6629 33.9762 24.5726 33.8925 24.4312L33.4347 23.6574C33.3264 23.4743 33.2295 23.3294 33.1439 23.2228C33.0666 23.1112 33.004 23.0527 32.9559 23.0474C32.8347 23.0515 32.7335 23.1841 32.6521 23.4452C32.5707 23.7064 32.5088 24.029 32.4664 24.413C32.4241 24.7971 32.3991 25.1821 32.3916 25.568C32.3859 25.9192 32.3745 26.1279 32.3575 26.194C32.3439 26.247 32.274 26.2713 32.148 26.267C31.9303 26.3168 31.7669 26.3064 31.6578 26.236C31.5522 26.1524 31.4767 26.0342 31.4312 25.8814C31.3892 25.7155 31.3259 25.4946 31.2415 25.219C31.1654 24.9384 31.09 24.6686 31.0154 24.4096C30.9359 24.1423 30.8749 23.9538 30.8325 23.8441C30.7598 23.7972 30.6892 23.8108 30.6207 23.8848C30.5556 23.9456 30.4986 24.0297 30.4498 24.137C30.3892 24.2625 30.3422 24.4584 30.3089 24.7249C30.2756 24.9914 30.2554 25.2895 30.2482 25.6191C30.2418 25.8361 30.2312 26.0555 30.2165 26.2774C30.1968 26.491 30.1756 26.683 30.1529 26.8535C30.1302 27.024 30.1028 27.158 30.0706 27.2555C30.0623 27.5072 30.0422 27.6537 30.0104 27.6949C29.9786 27.7361 29.8872 27.7619 29.7361 27.7724ZM37.7234 23.9412C37.3569 24.1571 36.9758 24.1965 36.5802 24.0593C36.1796 23.9139 35.8604 23.6307 35.6226 23.2097C35.462 22.9004 35.3308 22.5457 35.229 22.1456C35.1305 21.7324 35.0752 21.3161 35.063 20.8969C35.046 20.4693 35.0702 20.0735 35.1357 19.7095C35.2011 19.3455 35.3168 19.0474 35.4826 18.815C35.5413 18.7243 35.6091 18.6395 35.6859 18.5606C35.7711 18.4767 35.8637 18.4053 35.9636 18.3464C36.0552 18.2924 36.1609 18.2526 36.2805 18.227C36.3952 18.1931 36.4957 18.1731 36.5821 18.1672C36.7581 18.142 36.9082 18.1489 37.0324 18.1879C37.1566 18.227 37.2995 18.3167 37.4612 18.457C37.5797 18.6004 37.6587 18.7054 37.698 18.7719C37.7374 18.8385 37.7757 18.9506 37.8128 19.1083C37.89 19.4667 37.9135 19.8007 37.8833 20.1103C37.853 20.4199 37.7489 20.7281 37.571 21.0349C37.529 21.1158 37.4695 21.1957 37.3927 21.2746C37.3192 21.3404 37.2367 21.4002 37.1451 21.4542C36.9785 21.5524 36.7988 21.6189 36.6061 21.654C36.4168 21.6757 36.2394 21.6512 36.074 21.5804L35.9275 21.5321L35.949 21.654C35.9987 21.9277 36.0551 22.175 36.1183 22.3958C36.1899 22.6117 36.2724 22.7987 36.366 22.9568C36.425 23.0567 36.49 23.1475 36.5608 23.2292C36.6399 23.306 36.72 23.3654 36.801 23.4074C36.8639 23.4377 36.9402 23.4432 37.0299 23.424C37.123 23.3916 37.2154 23.3484 37.307 23.2944C37.3653 23.26 37.4236 23.2257 37.4819 23.1913C37.5437 23.1437 37.5963 23.0903 37.6398 23.031C37.7519 22.8976 37.8323 22.7773 37.8812 22.67C37.9383 22.5577 37.993 22.4413 38.0453 22.3208L38.0805 22.2664L38.068 22.2737C38.1384 22.1649 38.1963 22.0635 38.2417 21.9694C38.2955 21.8704 38.3224 21.8209 38.3224 21.8209C38.3557 21.8012 38.3767 21.7608 38.3854 21.6996C38.4324 21.627 38.523 21.5904 38.6574 21.5898C38.8002 21.5842 38.8986 21.6272 38.9528 21.7187C38.969 21.7652 38.9709 21.8539 38.9585 21.9847C38.941 22.1071 38.9128 22.2304 38.8739 22.3543C38.8432 22.4734 38.8053 22.5518 38.7603 22.5896C38.7569 22.6028 38.7376 22.6366 38.7024 22.691C38.6622 22.7371 38.6388 22.7734 38.632 22.7998L38.6444 22.7925C38.6286 22.9365 38.5831 23.0306 38.5082 23.0748L38.4082 23.1337C38.4094 23.2115 38.3405 23.3419 38.2015 23.5248C38.0577 23.6993 37.8983 23.8381 37.7234 23.9412ZM36.6612 20.8641C36.8111 20.7758 36.9156 20.6581 36.9746 20.5111C37.0371 20.3508 37.078 20.1921 37.0973 20.0348C37.1309 19.712 37.0987 19.4393 37.0007 19.2165C36.906 18.9806 36.7924 18.8455 36.6599 18.8114C36.5952 18.8159 36.542 18.8304 36.5003 18.8549C36.4621 18.8662 36.3987 18.9204 36.3101 19.0175C36.245 19.0783 36.1778 19.2021 36.1085 19.3888C36.0392 19.5755 35.9773 19.7746 35.9228 19.9863C35.8766 20.193 35.8473 20.3618 35.8348 20.4926L35.8275 20.8504C35.8793 20.7862 35.9344 20.7369 35.9927 20.7025C36.0544 20.655 36.0944 20.637 36.1125 20.6488C36.1568 20.7236 36.2112 20.787 36.2755 20.8388C36.3433 20.8775 36.4079 20.9011 36.4692 20.9099C36.5389 20.9137 36.6029 20.8985 36.6612 20.8641ZM40.5437 21.6397C40.4342 21.6256 40.3456 21.5993 40.2779 21.5607C40.2184 21.5172 40.152 21.4048 40.0785 21.2237C39.9657 20.976 39.8784 20.7525 39.8167 20.5532C39.75 20.3457 39.6769 20.1082 39.5974 19.8409C39.555 19.7312 39.4999 19.5336 39.4321 19.2482C39.3726 18.9578 39.3175 18.6368 39.2668 18.2852C39.216 17.9336 39.1751 17.5986 39.144 17.2803C39.1081 16.9536 39.0948 16.7034 39.1042 16.5295C39.1413 16.4403 39.2082 16.3729 39.3047 16.3272C39.4096 16.2766 39.515 16.265 39.621 16.2923C39.757 16.3132 39.8482 16.439 39.8948 16.6696C39.9448 16.887 39.9921 17.2519 40.0368 17.7641C40.0698 18.0477 40.0957 18.2624 40.1147 18.4083C40.1287 18.546 40.1473 18.6248 40.1704 18.6448C40.1885 18.6566 40.2186 18.622 40.2606 18.5411C40.2565 18.4202 40.2866 18.2622 40.3509 18.0672C40.4103 17.8638 40.4806 17.6598 40.5616 17.4549C40.6426 17.2501 40.7226 17.0627 40.8018 16.8926C40.8809 16.7225 40.938 16.6103 40.9733 16.5559C41.0153 16.475 41.0705 16.3976 41.1391 16.3235C41.211 16.2363 41.2587 16.1745 41.2822 16.1382C41.4196 15.9338 41.5956 15.7852 41.8103 15.6924C42.025 15.5996 42.1942 15.6008 42.318 15.6962C42.3657 15.7578 42.4203 15.793 42.4816 15.8018C42.5513 15.8056 42.5861 15.8075 42.5861 15.8075C42.6194 15.7879 42.6434 15.7906 42.6582 15.8155C42.6813 15.8356 42.6929 15.8456 42.6929 15.8456C42.7273 15.9039 42.7037 15.9683 42.6219 16.0389C42.5435 16.0963 42.4402 16.1684 42.3118 16.2553C42.2085 16.3274 42.125 16.4046 42.0614 16.487C41.9978 16.5694 41.9224 16.6699 41.8354 16.7885C41.6272 17.1581 41.429 17.5161 41.2408 17.8626C41.061 18.2042 40.924 18.5991 40.8297 19.0474C40.8108 19.1483 40.7993 19.2617 40.7951 19.3876C40.7909 19.5135 40.7875 19.6501 40.7849 19.7976C40.7679 19.8637 40.7804 19.9798 40.8224 20.1458C40.8644 20.3118 40.9082 20.4711 40.9536 20.6239C41.0025 20.7634 41.0343 20.8457 41.0491 20.8706C41.0491 20.8706 41.0612 20.9196 41.0854 21.0175C41.1047 21.1071 41.1074 21.2066 41.0934 21.3158C41.0722 21.5078 41.0283 21.6235 40.9616 21.6627C40.895 21.702 40.7557 21.6943 40.5437 21.6397ZM46.6138 18.6184C46.4775 18.6538 46.3595 18.6728 46.26 18.6754C46.1555 18.6696 46.0088 18.6495 45.8198 18.6149C45.6411 18.5407 45.4882 18.4625 45.3609 18.3804C45.2421 18.2933 45.13 18.1798 45.0247 18.0399C44.9145 17.8916 44.7881 17.6968 44.6453 17.4555C44.5862 17.3557 44.5143 17.1961 44.4295 16.9768C44.353 16.7525 44.2757 16.5175 44.1977 16.2717C44.1231 16.0127 44.0549 15.7836 43.9932 15.5843C43.9398 15.3801 43.9025 15.2506 43.8813 15.1958C43.8423 15.0729 43.7637 15.0351 43.6456 15.0822C43.5275 15.1294 43.4043 15.1964 43.2759 15.2832C43.151 15.3568 43.0603 15.3934 43.0039 15.393C42.9657 15.4043 42.9416 15.4017 42.9318 15.385C42.917 15.3601 42.9096 15.3476 42.9096 15.3476C42.8899 15.3143 42.8735 15.296 42.8602 15.2925C42.8504 15.2759 42.8206 15.2541 42.771 15.2273C42.7347 15.2038 42.716 15.1531 42.7148 15.0753C42.7171 14.9841 42.7591 14.9033 42.8409 14.8327C42.906 14.7718 42.9986 14.7005 43.1186 14.6185C43.242 14.5234 43.358 14.4157 43.4667 14.2956C43.5704 14.1671 43.6344 14.0284 43.6586 13.8795C43.6253 13.6523 43.5921 13.3969 43.5592 13.1134C43.5262 12.8298 43.5039 12.5737 43.4921 12.345C43.4838 12.103 43.484 11.9514 43.4927 11.8902C43.59 11.7319 43.6768 11.6414 43.7533 11.6188C43.8249 11.5878 43.9417 11.6144 44.1037 11.6984C44.1798 11.7321 44.2361 11.7607 44.2724 11.7842C44.3171 11.8028 44.3508 11.8502 44.3735 11.9266C44.3962 12.003 44.4119 12.134 44.4207 12.3196C44.4377 12.5003 44.4542 12.7655 44.4701 13.1152C44.4777 13.223 44.4845 13.3199 44.4906 13.4061C44.4917 13.484 44.4923 13.5229 44.4923 13.5229C44.5305 13.5116 44.583 13.4863 44.6496 13.4471C44.7162 13.4078 44.7971 13.3546 44.8921 13.2874C44.9739 13.2167 45.0831 13.1355 45.2198 13.0438C45.3515 12.9437 45.464 12.8774 45.5571 12.845C45.7487 12.7321 45.9124 12.6861 46.0483 12.707C46.1793 12.7196 46.2982 12.8067 46.405 12.9682C46.4758 13.0499 46.487 13.1162 46.4385 13.1672C46.3984 13.2133 46.2659 13.3026 46.041 13.4351C45.966 13.4793 45.8519 13.5522 45.6986 13.6537C45.5452 13.7553 45.3836 13.8618 45.2136 13.9732C45.0519 14.0796 44.9135 14.178 44.7984 14.2683C44.6868 14.3453 44.6358 14.3921 44.6457 14.4088C44.6305 14.4401 44.6357 14.5437 44.661 14.7195C44.6947 14.8904 44.7366 15.0846 44.7866 15.302C44.84 15.5062 44.8877 15.6913 44.9297 15.8572C45.0388 16.1745 45.1603 16.4844 45.2944 16.7869C45.4368 17.0845 45.5778 17.3324 45.7175 17.5306C45.8573 17.7288 45.9892 17.8475 46.1134 17.8865C46.2327 17.9172 46.3883 17.848 46.5802 17.6788C46.7672 17.5012 46.8954 17.3191 46.9647 17.1324C47.0407 16.9193 47.1246 16.7857 47.2162 16.7317C47.3162 16.6728 47.3974 16.6867 47.4599 16.7733C47.5257 16.8467 47.5513 16.9943 47.5366 17.2162C47.5252 17.4249 47.479 17.6316 47.398 17.8365C47.3121 18.033 47.2006 18.2053 47.0636 18.3533C46.9299 18.4882 46.78 18.5765 46.6138 18.6184ZM49.0785 16.375C49.0452 16.3946 48.9986 16.4108 48.9388 16.4236C48.8824 16.4232 48.8542 16.423 48.8542 16.423C48.8345 16.3897 48.7974 16.3555 48.7429 16.3203C48.6967 16.2802 48.6637 16.2435 48.644 16.2102C48.566 16.2112 48.513 16.1976 48.485 16.1692C48.4521 16.1325 48.4252 16.0586 48.4044 15.9474C48.4051 15.8348 48.393 15.6624 48.368 15.4303C48.3381 15.1898 48.3049 14.9344 48.2686 14.6641C48.2273 14.3855 48.1843 14.1134 48.1396 13.848C48.0949 13.5826 48.0574 13.3579 48.0271 13.1737C47.9919 12.9813 47.9686 12.866 47.9572 12.8278C47.9375 12.7945 47.9254 12.7455 47.9209 12.6809C47.9163 12.6162 47.9209 12.5575 47.9345 12.5045C47.9667 12.407 48.035 12.3612 48.1395 12.3669C48.2391 12.3643 48.3458 12.4024 48.4598 12.4811C48.5772 12.5466 48.6728 12.6418 48.7466 12.7666C48.7811 12.8248 48.828 12.9991 48.8875 13.2895C48.942 13.5716 48.9945 13.9166 49.0449 14.3245C49.1036 14.7275 49.1481 15.1445 49.1784 15.5755C49.1962 15.8904 49.2082 16.091 49.2142 16.1772C49.2154 16.255 49.1701 16.321 49.0785 16.375ZM48.1167 10.5625C48.0167 10.6214 47.8863 10.6478 47.7254 10.6416C47.5679 10.6222 47.413 10.5788 47.2608 10.5114C47.112 10.4308 47.0007 10.3281 46.9269 10.2032C46.9022 10.1616 46.8928 10.0887 46.8984 9.98434C46.9041 9.88001 46.9098 9.77568 46.9155 9.67134C46.9211 9.56701 46.9191 9.50652 46.9092 9.48988C46.9758 9.45062 47.0283 9.42533 47.0665 9.41402C47.1082 9.38948 47.168 9.37668 47.246 9.3756C47.4607 9.52963 47.674 9.63394 47.886 9.68855C48.1064 9.73824 48.2436 9.80885 48.2978 9.90038C48.4061 10.0834 48.4583 10.2097 48.4546 10.2793C48.4459 10.3405 48.3332 10.4349 48.1167 10.5625ZM51.7587 14.7957C51.6326 14.7914 51.505 14.7656 51.3759 14.7183C51.2419 14.6626 51.1306 14.5599 51.042 14.4101C50.9927 14.3269 50.9257 14.1756 50.8409 13.9563C50.7561 13.737 50.669 13.4853 50.5796 13.2013C50.4902 12.9174 50.4107 12.65 50.341 12.3994C50.3357 12.2005 50.3179 12.009 50.2876 11.8249C50.2573 11.6408 50.2323 11.5321 50.2126 11.4988C50.1702 11.3891 50.1221 11.2604 50.0684 11.1125C50.0229 10.9598 49.9849 10.8195 49.9542 10.6917C49.9235 10.5639 49.9116 10.4868 49.9184 10.4603C49.9354 10.3942 49.9706 10.3397 50.024 10.2971C50.0725 10.2461 50.1357 10.22 50.2137 10.219C50.2951 10.2047 50.3771 10.2293 50.4596 10.2929C50.6103 10.3387 50.7275 10.4324 50.8112 10.5738C50.8899 10.707 50.9622 10.9336 51.0281 11.2539C51.0516 11.4645 51.0923 11.7042 51.1503 11.973C51.2082 12.2418 51.2647 12.4891 51.3196 12.7148C51.3779 12.9273 51.4226 13.0693 51.4536 13.1408L51.2481 13.3629C51.3109 13.1463 51.3629 12.9305 51.4042 12.7155C51.4405 12.4921 51.4632 12.3216 51.4723 12.204C51.5007 11.9292 51.5279 11.7 51.554 11.5163C51.5836 11.3193 51.6275 11.0803 51.6858 10.7991C51.7391 10.5095 51.8326 10.2973 51.9663 10.1625C52.1033 10.0144 52.2177 9.91338 52.3093 9.85939C52.5122 9.7847 52.7146 9.7945 52.9164 9.88879C53.1216 9.96985 53.3295 10.1503 53.54 10.4302C53.6089 10.5467 53.6776 10.6914 53.7462 10.8642C53.823 11.0321 53.8615 11.116 53.8615 11.116C53.8615 11.116 53.8764 10.9894 53.9063 10.7362C53.9445 10.478 54.0187 10.1762 54.1289 9.83076C54.2182 9.62102 54.3329 9.46366 54.473 9.35868C54.6082 9.24538 54.771 9.21677 54.9614 9.27287C55.2469 9.26175 55.4943 9.35721 55.7037 9.55924C55.9082 9.75296 56.102 10.0427 56.2853 10.4284C56.3883 10.6595 56.4801 10.8242 56.5608 10.9225C56.6365 11.0126 56.7205 11.0977 56.8129 11.1779C56.8993 11.1719 56.9536 11.2353 56.9759 11.368C56.9934 11.4924 56.9729 11.5717 56.9146 11.6061C56.8313 11.6552 56.7257 11.695 56.5977 11.7255C56.4781 11.7511 56.3545 11.751 56.2269 11.7252C56.1027 11.6862 55.9988 11.5959 55.9151 11.4545L55.4573 10.6807C55.349 10.4976 55.2521 10.3528 55.1665 10.2461C55.0892 10.1345 55.0266 10.076 54.9785 10.0707C54.8573 10.0748 54.7561 10.2074 54.6747 10.4685C54.5933 10.7297 54.5314 11.0523 54.489 11.4364C54.4467 11.8204 54.4217 12.2054 54.4141 12.5914C54.4085 12.9426 54.3971 13.1512 54.3801 13.2174C54.3665 13.2703 54.2966 13.2946 54.1706 13.2903C53.9529 13.3401 53.7895 13.3297 53.6804 13.2593C53.5748 13.1757 53.4993 13.0575 53.4538 12.9048C53.4118 12.7388 53.3485 12.518 53.2641 12.2423C53.188 11.9617 53.1126 11.692 53.038 11.433C52.9585 11.1656 52.8975 10.9771 52.8551 10.8675C52.7824 10.8205 52.7118 10.8341 52.6433 10.9081C52.5782 10.9689 52.5212 11.053 52.4723 11.1603C52.4118 11.2858 52.3648 11.4818 52.3315 11.7482C52.2982 12.0147 52.278 12.3128 52.2708 12.6424C52.2644 12.8594 52.2538 13.0789 52.2391 13.3007C52.2194 13.5143 52.1982 13.7063 52.1755 13.8768C52.1528 14.0473 52.1254 14.1813 52.0932 14.2788C52.0849 14.5305 52.0648 14.677 52.033 14.7182C52.0012 14.7594 51.9098 14.7852 51.7587 14.7957ZM60.4649 9.90126C60.3786 10.1541 60.2262 10.3617 60.0077 10.5241C59.7976 10.6816 59.5572 10.7783 59.2865 10.8144C59.0109 10.8422 58.7432 10.7979 58.4835 10.6817C58.2336 10.582 58.0189 10.428 57.8394 10.2196C57.655 10.0028 57.4663 9.69326 57.2731 9.29089C57.1062 8.95166 57.0183 8.56581 57.0096 8.13334C56.9959 7.69254 57.0419 7.26711 57.1475 6.85703C57.2614 6.44204 57.418 6.10855 57.6171 5.85655C57.6928 5.69973 57.7748 5.60094 57.863 5.56018C57.9546 5.5062 58.0969 5.43354 58.29 5.3422C58.4964 5.25428 58.6601 5.20829 58.7813 5.20423C58.9108 5.19526 59.0293 5.2152 59.1368 5.26405C59.3356 5.31523 59.4927 5.39096 59.6082 5.49123C59.7187 5.58318 59.8085 5.6874 59.8774 5.80389C59.9524 6.00657 59.9603 6.30484 59.9013 6.6987C59.8457 7.07934 59.6963 7.45347 59.4533 7.82111C59.3045 7.98732 59.1194 8.13007 58.8979 8.24936C58.6764 8.36864 58.4653 8.42008 58.2647 8.40367C58.067 8.43035 57.9703 8.50418 57.9745 8.62516C57.9737 8.73781 58.051 8.97282 58.2062 9.33018C58.36 9.66599 58.5228 9.88424 58.6947 9.98493C58.8617 10.0773 59.0233 10.0942 59.1797 10.0358C59.366 9.9709 59.5098 9.91979 59.6113 9.88244C59.7162 9.83187 59.8148 9.72326 59.9072 9.55662C59.9912 9.39489 60.0474 9.30005 60.0758 9.2721C60.0993 9.23583 60.1144 9.20446 60.1212 9.178C60.1315 9.13832 60.1536 9.05233 60.1877 8.92005C60.2115 8.82745 60.2327 8.75886 60.2513 8.71426C60.2649 8.66135 60.2925 8.62262 60.3342 8.59808C60.3758 8.57354 60.4256 8.57226 60.4835 8.59423C60.5365 8.60788 60.5846 8.61321 60.6278 8.61022C60.7111 8.56114 60.7573 8.60125 60.7664 8.73054C60.7838 8.85493 60.7677 9.02711 60.7181 9.24708C60.6636 9.45874 60.5792 9.6768 60.4649 9.90126ZM58.887 7.26269C58.954 7.1671 59.0154 7.05242 59.071 6.91864C59.1217 6.77654 59.1533 6.64009 59.1658 6.5093C59.1817 6.36529 59.17 6.25999 59.1306 6.19343C59.0617 6.07694 58.9509 6.01316 58.7984 6.00208C58.6409 5.98267 58.4711 6.0659 58.289 6.25175C58.2121 6.33069 58.1449 6.45445 58.0874 6.623C58.0249 6.78324 57.974 6.9535 57.9346 7.13379C57.9036 7.30917 57.8818 7.46226 57.8693 7.59305C57.8652 7.71893 57.8764 7.78528 57.9029 7.79211C57.9525 7.81899 58.043 7.81055 58.1743 7.7668C58.3008 7.71473 58.4323 7.64282 58.569 7.55107C58.714 7.45441 58.82 7.35828 58.887 7.26269Z" fill="#6637ED"/>
</svg>
