<svg width="237" height="109" viewBox="0 0 237 109" fill="none" xmlns="http://www.w3.org/2000/svg">
<path fill-rule="evenodd" clip-rule="evenodd" d="M0.0194279 104.142C-0.0943773 102.963 0.322197 101.813 0.726493 101.06C0.917269 100.566 1.43499 100.463 1.62576 99.9684C1.96178 98.5083 1.37792 97.4014 1.24135 95.9869C1.17307 95.2797 1.11743 94.7034 1.04915 93.9962C0.980867 93.289 0.902469 92.4769 0.856946 92.0054C0.765903 91.0625 1.41876 89.889 1.56401 88.9232C2.38129 85.0372 3.69855 81.2351 5.48375 77.4936L6.28691 75.4068C7.66782 72.4181 9.35035 69.9291 10.495 66.9633C13.0432 61.2446 15.7486 54.3738 18.8149 49.081C19.8371 47.3167 21.0575 45.5068 22.3159 43.7197C24.6192 40.4041 26.2392 38.6878 28.6108 36.0794C29.2514 35.3037 29.7687 34.6721 30.4093 33.8964C34.2984 29.7139 38.5251 24.1503 43.1913 20.6066C57.1444 9.50372 74.4426 2.75747 94.5045 0.582574C102.775 -0.2159 112.298 -0.262899 122.663 0.877831C153.782 4.53577 185.333 17.2996 216.763 39.0111L217.663 37.9196C215.34 33.623 212.196 29.4321 209.446 25.6525C208.623 24.5422 207.989 23.9689 207.167 22.8586C206.908 22.6457 206.334 22.1723 206.075 21.9593C205.58 21.7692 205.479 21.2502 204.984 21.0601C205.138 17.714 205.363 16.0002 207.489 15.7949C209.616 15.5896 211.116 18.6174 213.043 21.2866L214.134 22.1859C220.738 31.3039 227.099 41.8468 233.039 51.5048C234.448 53.7482 235.289 55.9407 236.698 58.1841C236.317 59.1727 235.877 60.0876 235.991 61.2663C236.082 62.2093 236.351 62.527 236.183 63.257C235.87 64.9529 234.527 67.4356 233.582 67.5268C232.873 67.5953 232.199 66.6028 231.399 65.7283C230.858 65.0667 229.757 64.5914 229.216 63.9297C227.684 62.8879 225.859 61.425 223.855 60.4288C223.1 60.0257 222.522 60.0287 221.768 59.6256L219.681 58.8224C215.414 56.6171 211.139 53.7514 205.972 52.1088L204.977 52.2049C202.264 51.2771 199.634 49.9447 197.721 49.8915C196.517 49.7698 194.685 50.1846 193.739 50.2759C192.322 50.4128 191.384 50.2125 189.662 49.6649C189.639 49.4292 189.685 49.9007 189.662 49.6649C189.252 45.4215 193.027 44.3168 195.154 44.1115C200.802 43.3282 207.602 45.5534 212.555 47.4546C214.041 48.0249 215.502 48.7035 216.729 49.0609L217.532 46.9741C205.807 36.6849 189.724 28.1648 167.578 18.6436C156.894 14.2024 147.475 10.3795 138.459 8.39464C124.817 5.42878 110.052 3.68169 90.1042 7.03531C50.9169 13.6741 29.7974 39.3225 19.8721 60.0301C16.4697 66.783 14.415 72.9829 11.7443 79.9031L10.845 80.9946C9.10533 85.2076 7.21324 90.4664 7.30969 96.4057C7.35521 96.8772 7.36027 96.9296 7.40579 97.4011C7.47407 98.1083 7.52971 98.6846 7.59799 99.3918C7.66627 100.099 7.72191 100.675 7.7902 101.383C7.88124 102.326 7.75154 103.977 7.17923 105.46C6.62968 107.179 5.38106 108.172 4.48142 108.735C1.60042 108.537 0.224277 106.264 0.0194279 104.142Z" fill="white"/>
</svg>
