<svg width="393" height="174" viewBox="0 0 393 174" fill="none" xmlns="http://www.w3.org/2000/svg">
<path fill-rule="evenodd" clip-rule="evenodd" d="M42 174C33.0844 174 25.706 172.852 20 170C19.6434 169.643 18.7132 168.713 18 168C17.2868 167.287 16.7132 167.357 16 167C14.9301 166.287 14.0699 165.357 13 165C12.2868 164.643 11.3566 164 11 164C5.65064 159.365 0.356624 149.41 0 138C0 135.504 0.643376 131.496 1 129C2.4265 116.877 6.65064 106.41 12 95C12.3566 95 13 95 13 95C14.4265 95 15.2169 95.2869 17 96C17.7132 102.775 15.4964 108.295 13 114C11.2169 117.922 10.0699 122.721 9 127C7.5735 134.488 5.58802 152.443 17 161C17.7132 161.713 18.2868 162 19 162C19.3566 162.713 19.6434 163.643 20 164C24.2795 165.783 30.2241 167 37 167C49.1252 167 63.7278 162.566 73 159C74.0699 158.643 75.5735 158.357 77 158C80.2096 156.93 82.2868 156.713 83 156C83.7132 155.643 83.6434 154.713 84 154C84.3566 154 85 154 85 154C85.7132 154 85.9301 154.357 87 154C95.559 149.721 104.224 144.279 111 140L116 136L113 135C101.231 128.939 102.007 114.123 107 102C112.706 88.0943 121.301 76.418 132 70H133V69C135.496 67.9303 138.217 66.1393 140 64C143.566 62.9303 146.147 62 149 62C151.853 62 154.434 63.2172 158 65C159.07 65.3566 159.287 65.2869 160 66C160.357 66.7131 160.574 67.5738 162 69C162.713 70.0697 163.643 70.6434 164 71C164.713 71.7131 165.287 71.2172 166 73C170.279 81.9139 161.566 96.2951 158 102C153.721 108.418 146.636 117.939 142 124L138 128L144 127C144.713 126.643 145.287 126 146 126C147.783 125.643 148.86 125.426 151 124C151.713 123.643 152.93 123.713 154 123C155.07 122.643 155.93 121.357 157 121C174.118 112.086 192.309 100.766 208 89C209.426 87.9303 211.574 87.0697 213 86C216.21 83.5041 219.434 80.7828 223 79L224 78L223 77C221.93 73.4344 220.643 68.418 221 62C221.713 55.2254 225.504 49.7049 228 44C229.07 41.5041 229.287 39.1393 230 37C232.14 36.2869 233.93 33.7828 235 32C235.357 31.2869 235.287 30.7131 236 30C239.566 25.3648 243.651 21.2787 249 17C250.783 15.5738 254.86 12.3566 257 12C257.357 12 257.643 12 258 12C262.636 12 268.79 14.1475 272 17V18C272.357 18.7131 273.287 19.6434 274 20C274.713 20.7131 275.287 21 276 21C276 21.7131 275.287 22.2869 276 23C276.357 23.7131 277.643 23.6434 278 24C280.853 33.6271 268.916 51.5123 260 59C257.86 60.7828 255.496 62.2172 253 64C248.364 67.209 243.566 71.0779 240 75L237 78H242C258.405 75.1475 273.162 67.418 286 61C291.349 58.1475 296.007 56.1393 301 54H302V53C303.783 50.8607 307.147 49.4262 310 48C312.496 46.5738 314.86 46.1393 317 44C317.713 44 318.643 44 319 44H320H321C322.07 43.6434 322 42.7131 322 42C324.14 41.2869 326.217 40.0697 328 39C330.14 37.5738 332.217 36 334 36H335V35C337.496 32.5041 341.434 30.1393 345 28C345.357 28.3566 345.643 28 346 28H347C347.357 27.6434 347.643 27.3566 348 27C348.357 26.6434 348.643 26.3566 349 26C355.419 22.4344 363.294 18.2787 369 14C370.07 13.2869 370.93 12.7131 372 12C374.853 9.86065 377.86 7.13935 380 5C380.713 4.28689 381.287 3.06967 382 2C382.713 0.930328 382.93 0 384 0C384.357 0 385.643 0 386 0C389.21 0 391.217 3.86066 393 6C392.643 7.42623 392 8.21721 392 10C386.294 13.209 380.349 17.0779 375 21C369.651 24.9221 363.349 29.1475 358 32C356.93 32.3566 356.07 33.6434 355 34C353.93 34.3566 353.07 34.2869 352 35C350.93 35.7131 349.713 36.2869 349 37C348.287 37.7131 347.07 38.6434 346 39C329.595 48.6271 311.978 58.5123 297 66C295.217 67.0697 293.783 67.9303 292 69C289.86 70.4262 288.14 71.9303 286 73C284.93 73.3566 283.07 73.6434 282 74C280.93 74.3566 280.426 74.2869 279 75C277.574 75.7131 275.426 76.2869 274 77C265.084 81.2787 254.629 86.2869 245 87C243.93 87 244.07 87 243 87C239.077 87 235.566 86.1393 232 84L231 83L230 84C216.805 95.0533 201.691 105.73 186 115C184.217 116.07 181.783 116.93 180 118C174.294 121.566 168.706 125.148 163 128C153.371 132.992 144.769 138 133 138C131.93 138 130.07 138 129 138H128L125 140C104.672 154.262 81.6697 170.504 51 173C47.0771 173.713 44.4964 174 42 174ZM154 71C137.595 72.0697 125.132 87.8074 118 101V103C114.434 109.418 110.217 116.582 112 123C113.07 126.566 118.434 129 122 129C125.21 128.643 126.574 127.426 128 126C128.357 125.643 128.287 125.357 129 125C130.07 123.93 130.643 123 131 123L132 124L133 122C134.783 118.791 137.79 115.922 141 112C142.783 109.504 144.217 106.496 146 104C150.993 97.2254 156.574 89.4877 158 82C158.713 78.791 158.853 74.5656 156 71V70L154 71ZM264 21C256.154 22.7828 250.279 27.3648 246 32V34C235.658 45.7664 230 56.9467 230 68V72L233 69C235.853 65.791 240.077 62.209 244 59C247.923 55.4344 251.79 51.9221 255 48C255.357 48 255.643 49 256 49L257 48C257.357 47.2869 257.643 46.7131 258 46C258.357 45.2869 258.643 45.3566 259 45C261.853 41.4344 268.783 32.2008 267 24V23H265C264.643 23 265.357 22.7131 265 22L264 21Z" fill="#FBD2FF"/>
</svg>
