<svg width="153" height="48" viewBox="0 0 153 48" fill="none" xmlns="http://www.w3.org/2000/svg">
<rect width="153" height="48" fill="#818181"/>
<g id="Section 1">
<path d="M-2881 -5795C-2881 -5796.1 -2880.1 -5797 -2879 -5797H21192C21193.1 -5797 21194 -5796.1 21194 -5795V3950C21194 3951.1 21193.1 3952 21192 3952H-2879C-2880.1 3952 -2881 3951.1 -2881 3950V-5795Z" fill="#1C221B"/>
<path d="M-2879 -5797V-5796H21192V-5797V-5798H-2879V-5797ZM21194 -5795H21193V3950H21194H21195V-5795H21194ZM21192 3952V3951H-2879V3952V3953H21192V3952ZM-2881 3950H-2880V-5795H-2881H-2882V3950H-2881ZM-2879 3952V3951C-2879.55 3951 -2880 3950.55 -2880 3950H-2881H-2882C-2882 3951.66 -2880.66 3953 -2879 3953V3952ZM21194 3950H21193C21193 3950.55 21192.6 3951 21192 3951V3952V3953C21193.7 3953 21195 3951.66 21195 3950H21194ZM21192 -5797V-5796C21192.6 -5796 21193 -5795.55 21193 -5795H21194H21195C21195 -5796.66 21193.7 -5798 21192 -5798V-5797ZM-2879 -5797V-5798C-2880.66 -5798 -2882 -5796.66 -2882 -5795H-2881H-2880C-2880 -5795.55 -2879.55 -5796 -2879 -5796V-5797Z" fill="white" fill-opacity="0.1"/>
<g id="1440" clip-path="url(#clip0_65_1603)">
<rect width="1440" height="7347" transform="translate(0 -5445)" fill="#6637ED"/>
<g id="Where To bay">
<rect width="1441" height="1074" transform="translate(0 -736)" fill="#FBD2FF"/>
<g id="marqeen">
<g id="item">
<rect x="-161.5" y="-148.5" width="368" height="371" rx="21.5" fill="white"/>
<rect x="-161.5" y="-148.5" width="368" height="371" rx="21.5" stroke="#1C221B" stroke-width="5"/>
<g id="Logo">
<g id="lg">
<g id="Vector">
<path fill-rule="evenodd" clip-rule="evenodd" d="M-72.5 48L-62.5 18V48H-48.5V0H-68.5L-77.5 24L-87.5 0H-107.5V48H-92.5V18L-82.5 48H-72.5ZM86.5 29C91.1357 28.6 96.5 26.2 96.5 21V10V9C95.8954 3.6 91.1357 0.4 86.5 0H48.5V48H63.5V29H69.5L79.5 48H96.5L84.5 29H86.5ZM82.5 17C82.5 18 82.3139 19 80.5 19H63.5V9H80.5C82.5155 9 82.5 11.2 82.5 12V17ZM-3.5 9V0H-41.5V48H-2.5V39H-27.5V28H-3.5V19H-27.5V9H-3.5ZM15.5 9H1.5V0H44.5V9H30.5V48H15.5V9ZM143.5 0H111.5C106.663 0.4 103.105 2.6 102.5 8V39C103.105 44.4 106.864 47.8 111.5 48H143.5C148.337 47.6 151.895 44.4 152.5 39V8C151.895 2.6 148.136 0.4 143.5 0ZM137.5 36C137.5 36.6 137.314 38.8 135.5 39H119.5C117.686 38.8 117.5 36.6 117.5 36V11C117.5 10.4 117.686 10.2 119.5 10H135.5C137.314 10.2 137.5 10.6 137.5 11V36Z" fill="#FFE500"/>
</g>
</g>
</g>
</g>
</g>
</g>
</g>
</g>
<defs>
<clipPath id="clip0_65_1603">
<rect width="1440" height="7347" fill="white" transform="translate(0 -5445)"/>
</clipPath>
</defs>
</svg>
