<svg width="286" height="286" viewBox="0 0 286 286" fill="none" xmlns="http://www.w3.org/2000/svg">
<rect width="286" height="286" fill="#818181"/>
<g id="Section 1">
<path d="M-3375 -5689C-3375 -5690.1 -3374.1 -5691 -3373 -5691H20698C20699.1 -5691 20700 -5690.1 20700 -5689V4056C20700 4057.1 20699.1 4058 20698 4058H-3373C-3374.1 4058 -3375 4057.1 -3375 4056V-5689Z" fill="#1C221B"/>
<path d="M-3373 -5691V-5690H20698V-5691V-5692H-3373V-5691ZM20700 -5689H20699V4056H20700H20701V-5689H20700ZM20698 4058V4057H-3373V4058V4059H20698V4058ZM-3375 4056H-3374V-5689H-3375H-3376V4056H-3375ZM-3373 4058V4057C-3373.55 4057 -3374 4056.55 -3374 4056H-3375H-3376C-3376 4057.66 -3374.66 4059 -3373 4059V4058ZM20700 4056H20699C20699 4056.55 20698.6 4057 20698 4057V4058V4059C20699.7 4059 20701 4057.66 20701 4056H20700ZM20698 -5691V-5690C20698.6 -5690 20699 -5689.55 20699 -5689H20700H20701C20701 -5690.66 20699.7 -5692 20698 -5692V-5691ZM-3373 -5691V-5692C-3374.66 -5692 -3376 -5690.66 -3376 -5689H-3375H-3374C-3374 -5689.55 -3373.55 -5690 -3373 -5690V-5691Z" fill="white" fill-opacity="0.1"/>
<g id="1440" clip-path="url(#clip0_65_1603)">
<rect width="1440" height="7347" transform="translate(-494 -5339)" fill="#6637ED"/>
<g id="Where To bay">
<rect width="1441" height="1074" transform="translate(-494 -630)" fill="#FBD2FF"/>
<g id="marqeen">
<g id="item">
<rect x="-42.5" y="-42.5" width="371" height="371" rx="21.5" fill="white"/>
<rect x="-42.5" y="-42.5" width="371" height="371" rx="21.5" stroke="#1C221B" stroke-width="5"/>
<g id="Logo">
<g id="logo-lidl-header 1">
<g id="Vector">
<path d="M3 3H283V283H3V3Z" fill="#6637ED"/>
</g>
<g id="Vector_2">
<path d="M143 19C74.524 19 19 74.524 19 143C19 211.441 74.5594 267 143 267C211.476 267 267 211.405 267 143C267 74.524 211.441 19 143 19Z" fill="#FFF200"/>
</g>
<g id="Vector_3">
<path d="M135 147L113 125L88 150V159L94 152L112 170L106 177L110 181L145 146V137L135 147Z" fill="#EC1F26"/>
</g>
<g id="Vector_4">
<path d="M33 120H72V128H66V156L88 143V166H33V158H40V128H33V120ZM198 120V128H204V158H198V166H253V143L230 156V128H237V120H198Z" fill="#6637ED"/>
</g>
<g id="Vector_5">
<path d="M110 94C117.75 94 124 100.276 124 108C124 115.76 117.714 122 110 122C102.286 122 96 115.724 96 108C96 100.24 102.286 94 110 94Z" fill="#EC1F26"/>
</g>
<g id="Vector_6">
<path d="M143 11C69.8611 11 10 70.8257 10 144C10 217.139 69.8611 276 143 276C216.139 276 275 217.139 275 144C275 70.8257 216.139 11 143 11ZM143 268C74.4655 268 18 212.464 18 144C18 75.4301 74.5009 19 143 19C211.534 19 267 75.4655 267 144C267 212.464 211.499 268 143 268Z" fill="#EC1F26"/>
</g>
<g id="Vector_7">
<path d="M175 120H138V128H145V158H138V166H175C202.534 166 202.817 120 175 120Z" fill="#6637ED"/>
</g>
<g id="Vector_8">
<path d="M171 151H169V134H171C179.459 134.035 179.165 151.035 171 151Z" fill="#FFF200"/>
</g>
</g>
</g>
</g>
</g>
</g>
</g>
</g>
<defs>
<clipPath id="clip0_65_1603">
<rect width="1440" height="7347" fill="white" transform="translate(-494 -5339)"/>
</clipPath>
</defs>
</svg>
