<svg width="360" height="177" viewBox="0 0 360 177" fill="none" xmlns="http://www.w3.org/2000/svg">
<path fill-rule="evenodd" clip-rule="evenodd" d="M1.78087 172.87C3.46193 163.983 2.4611 152.73 1.43601 142.507C0.563636 133.463 -0.655394 124.52 0.416782 116.566C3.57906 115.79 4.96339 117.898 6.7111 119.788C6.05816 122.698 7.21585 126.452 7.8801 129.919C8.31987 131.986 8.44614 133.518 8.4646 134.984L8.74187 139.098L10.0307 136.58C11.1859 135.226 11.3348 133.674 11.6567 131.852C11.8535 131.052 12.4415 129.183 12.6383 128.383C12.9694 127.294 13.39 127.02 13.9271 125.865C14.4642 124.71 14.5776 123.484 14.9087 122.396L15.5531 121.137C16.1527 119.471 16.0399 118.249 16.2275 116.716C17.9383 115.673 18.951 113.106 19.7567 111.373C20.5624 109.64 21.3429 108.199 22.6416 107.289L23.5932 106.982C31.7751 88.6333 47.7441 70.9582 68.0052 59.0177C80.9209 49.6941 94.3047 43.1714 110.582 37.9166C110.788 37.8501 111.327 37.6759 111.533 37.6094C112.151 37.4098 113.024 37.1279 113.436 36.9949C113.642 36.9284 114.182 36.7542 114.388 36.6877C114.594 36.6212 114.388 36.6877 114.388 36.6877C114.872 36.7769 115.34 36.3805 115.34 36.3805L115.647 37.3321L116.291 36.0732C116.569 36.229 117.037 35.8325 117.243 35.766C117.449 35.6995 117.109 36.0548 117.243 35.766C117.449 35.6995 117.917 35.303 118.195 35.4588C119.986 35.3712 121.612 35.4064 123.26 34.8743C124.29 34.5417 125.085 34.2852 126.115 33.9526C134.849 32.1145 145.423 31.079 155.556 30.7528C155.834 30.9086 156.743 31.175 156.815 31.3972L155.219 32.9633L158.073 32.0416C161.576 30.9109 166.675 32.3101 171.029 33.1131C171.719 33.1358 171.733 33.446 172.288 33.7575C173.534 34.0917 174.698 34.2758 175.45 33.7875C176.893 33.3218 178.886 31.2437 180.238 29.0892C180.776 27.9341 181.563 26.2455 182.172 25.3126C187.67 18.3836 194.157 14.0184 205.408 9.40438L209.215 8.17547C215.458 5.66893 220.72 2.67408 227.94 1.07929C230.484 0.503354 232.728 0.33905 233.005 0.494794L233.313 1.44643C234.271 0.891585 235.478 0.502038 236.168 0.524748C236.857 0.547458 237.142 1.26103 238.378 0.86193C238.656 1.01767 239.663 0.447026 240.281 0.247476L239.637 1.50634L241.54 0.891885C242.364 0.625818 242.548 0.321238 243.443 0.277431C244.617 0.389367 245.909 0.532293 247.557 0.000158397C249.699 0.290551 252.296 0.0811649 253.882 0.060068C254.294 -0.0729656 254.934 0.770994 255.14 0.704477C255.696 1.01596 256.661 1.01895 257.351 1.04166C257.279 0.819399 257.835 1.13089 257.351 1.04166C257.629 1.1974 258.943 1.57839 259.561 1.37884C259.767 1.31232 259.355 1.44536 259.561 1.37884C260.045 1.46807 260.775 0.741677 261.465 0.764387C262.988 1.25433 264.983 1.73017 266.837 1.13152C268.432 1.84372 270.582 2.09339 272.517 2.4503C274.175 2.65146 275.395 2.57212 276.631 2.17302C278.02 2.95174 279.95 2.95771 281.052 2.84739C281.258 2.78087 280.846 2.9139 281.052 2.84739C281.536 2.93661 282.033 3.33605 282.311 3.4918C283.072 3.73677 284.443 3.85433 285.473 3.52175C286.378 4.21124 287.435 4.49908 287.991 4.81057C289.442 5.07825 291.146 5.08814 292.104 4.5333C294.811 5.86847 298.422 6.52056 301.254 6.83366C303.673 7.2798 305.63 7.90619 308.192 8.79684C312.35 10.3997 316.712 12.0677 321.425 13.9821C324.544 15.1842 327.97 15.9654 330.882 17.2341C335.595 19.1484 340.448 22.3378 345.037 25.2742C347.259 26.5202 348.903 27.3168 351.331 28.4963C351.886 28.8077 353.087 29.5401 353.849 29.7851C355.721 30.653 357.793 31.8023 359.191 33.3143C359.622 34.6479 359.012 37.1539 358.824 38.687C358.896 38.9092 359.06 39.4164 359.131 39.6386C357.886 39.3044 356.914 37.8693 355.999 36.4465C351.832 34.1104 346.419 31.0326 340.586 27.762C340.03 27.4505 339.954 27.6513 339.327 27.1176C338.422 26.4281 337.541 25.2778 336.502 24.8771C335.946 24.5656 335.082 25.5808 334.599 25.4916C334.393 25.5581 334.291 24.5399 334.291 24.5399C333.736 24.2284 332.636 24.5142 332.081 24.2028C331.247 23.7355 331.348 23.0739 330.515 22.6067C329.404 21.9837 327.849 21.2965 326.738 20.6735C321.953 18.5369 317.165 16.6917 312.246 14.8438C300.75 10.947 287.931 8.61824 274.053 7.20848C265.354 6.33569 256.031 5.70919 246.238 5.68002C233.069 5.75956 220.903 9.47976 207.251 15.1142C198.061 19.063 188.635 23.2189 183.371 32.2813L182.726 33.5401L183.985 34.1846C186.207 35.4305 188.227 35.5459 190.924 36.1477C192.169 36.4819 194.028 36.2656 195.345 36.8221C198.803 37.6689 201.578 39.9566 205.108 41.0257C208.845 42.0283 213.2 42.2642 217.42 43.3561C222.885 44.7821 226.814 46.4139 228.105 50.4146C228.464 51.5259 228.57 52.9953 228.382 54.5284C228.257 55.5504 227.369 56.2209 226.142 57.3533C225.39 57.8417 225.227 58.2088 224.546 58.9194C216.305 61.5801 209.031 61.0594 200.815 60.2758L198.604 59.9386C197.431 59.8267 196.616 60.0206 195.442 59.9087C191.025 59.6167 186.455 58.714 183.131 57.5784C182.298 57.1111 182.398 56.4496 181.565 55.9823C180.66 55.2928 179.135 55.4014 178.095 55.0007C176.267 52.1552 175.24 49.4104 174.379 46.7432C173.589 44.2984 173.469 41.6445 174.131 39.4673L173.824 38.5157L172.873 38.8229C148.538 33.917 119.033 39.4606 99.7464 46.6687C98.9223 46.9348 97.9511 48.0537 97.1987 48.542C96.6524 48.9639 96.6592 48.7162 96.2471 48.8493C78.3589 57.5694 60.347 69.8897 47.8711 81.2802C37.1685 91.1165 28.1529 104.628 24.1777 112.047C24.0435 112.336 24.6192 112.71 24.485 112.999C24.3507 113.288 24.0466 114.191 23.8406 114.258C22.5603 116.635 21.1109 118.99 19.9741 121.811C19.7055 122.389 19.67 122.715 19.3297 123.07C19.0611 123.648 19.055 124.769 18.9925 125.28C15.9133 132.656 14.0734 141.082 13.073 149.259L12.0914 152.728L14.6391 150.855C14.9794 150.5 15.7606 149.933 16.2351 149.289C18.8234 146.735 21.3157 143.483 22.6493 139.862C23.2674 139.663 23.1594 138.892 23.2937 138.603L24.5525 139.248L25.197 137.989C25.1252 137.767 24.5494 137.393 24.8897 137.037C25.024 136.749 25.4716 136.289 25.5341 135.778C26.4925 135.224 27.1657 133.886 27.7746 132.953C28.5895 131.954 29.2921 131.413 30.3223 131.08C33.0007 130.215 35.785 132.431 36.9238 135.254C36.5302 136.853 35.8772 138.253 34.9906 139.03C34.31 139.741 33.4215 140.412 32.7501 141.855C28.0923 144.341 25.0992 148.491 22.5295 152.511C21.7863 153.732 21.3394 155.066 20.5962 156.287C20.1216 156.931 19.9163 157.872 19.3074 158.805C16.1913 163.247 12.4683 168.224 11.5745 173.911C10.6878 174.689 9.94293 175.804 9.33405 176.736C7.7483 176.758 6.16772 177.13 4.91305 176.062C4.28571 175.528 3.32675 174.403 3.03973 173.514C2.62766 173.647 2.20216 173.47 1.78087 172.87ZM221.136 51.6136L220.829 50.6619C216.125 49.4809 211.521 48.2054 206.952 46.7356C204.945 46.1564 202.972 45.0443 200.965 44.4651C195.633 42.7503 189.525 41.6461 183.925 40.5088C182.474 40.2411 180.956 40.1021 179.504 39.8345L178.552 40.1417C178.49 40.6527 178.278 41.8412 178.215 42.3522C177.616 44.0183 177.513 44.5733 177.541 46.7732L176.897 48.0321L177.848 47.7248C183.154 52.8838 189.542 54.4196 197.068 55.1805L198.02 54.8732C205.958 55.5011 212.734 55.6223 220.492 52.8724C221.657 52.2511 221.208 51.8358 221.136 51.6136Z" fill="white"/>
</svg>
